<svg width="21" height="20" viewBox="0 0 21 20" fill="none" xmlns="http://www.w3.org/2000/svg">
<path id="Vector" d="M19.6425 13.7038L14.8219 11.5435C14.6035 11.4499 14.3652 11.4123 14.1286 11.4341C13.8919 11.4558 13.6645 11.5362 13.4668 11.668C13.4467 11.6809 13.4276 11.6952 13.4096 11.7109L10.8902 13.8538C10.864 13.8681 10.8349 13.876 10.8052 13.8771C10.7754 13.8782 10.7458 13.8723 10.7187 13.8599C9.09928 13.0783 7.42167 11.4109 6.63695 9.81388C6.62389 9.78719 6.61709 9.75787 6.61709 9.72816C6.61709 9.69845 6.62389 9.66913 6.63695 9.64244L8.78702 7.09134C8.80245 7.07246 8.81676 7.0527 8.82988 7.03215C8.95988 6.83368 9.03839 6.60596 9.05835 6.36955C9.0783 6.13313 9.03906 5.89548 8.94417 5.67802L6.7992 0.865617C6.67739 0.581535 6.46673 0.344622 6.19884 0.190436C5.93094 0.0362498 5.62027 -0.0268924 5.31344 0.0104861C3.97995 0.185795 2.75592 0.840655 1.87008 1.85269C0.984244 2.86473 0.497217 4.16469 0.500012 5.50965C0.500012 13.4997 7.00023 19.9999 14.9903 19.9999C16.3352 20.0025 17.635 19.5154 18.647 18.6296C19.659 17.7438 20.3139 16.5199 20.4895 15.1865C20.5268 14.8811 20.4645 14.5718 20.3119 14.3047C20.1593 14.0375 19.9245 13.8268 19.6425 13.7038ZM14.9903 18.7754C7.67576 18.7754 1.72454 12.8242 1.72454 5.50965C1.72113 4.4626 2.09905 3.45013 2.78769 2.6614C3.47632 1.87267 4.42857 1.36164 5.46651 1.22379H5.48998C5.5311 1.22456 5.57103 1.23773 5.60453 1.26159C5.63804 1.28544 5.66355 1.31886 5.67774 1.35747L7.83087 6.16477C7.84315 6.1915 7.84951 6.22057 7.84951 6.24998C7.84951 6.2794 7.84315 6.30846 7.83087 6.33519L5.67672 8.89242C5.66065 8.91067 5.64598 8.93012 5.63284 8.95058C5.49804 9.15636 5.41867 9.39346 5.4024 9.63892C5.38613 9.88438 5.43352 10.1299 5.53998 10.3517C6.44511 12.2048 8.31252 14.0579 10.1861 14.963C10.4091 15.0689 10.6558 15.1151 10.9021 15.0973C11.1483 15.0794 11.3858 14.998 11.5912 14.861C11.6106 14.8477 11.63 14.8334 11.6483 14.8181L14.1668 12.6752C14.1917 12.6618 14.2191 12.654 14.2473 12.6522C14.2755 12.6505 14.3037 12.6548 14.3301 12.665L19.1517 14.8253C19.191 14.842 19.2242 14.8708 19.2463 14.9074C19.2685 14.944 19.2786 14.9867 19.2751 15.0294C19.138 16.0678 18.6275 17.0207 17.8389 17.7101C17.0503 18.3995 16.0377 18.7782 14.9903 18.7754Z" fill="black"/>
</svg>
