<svg width="120" height="42" viewBox="0 0 120 42" fill="none" xmlns="http://www.w3.org/2000/svg">
<g id="Group">
<g id="Group_2">
<g id="Group_3">
<g id="Group_4">
<g id="Group_5">
<g id="Group_6">
<path id="Vector" d="M64.7349 0.817139H32.3286V6.30299H64.7349V0.817139Z" fill="#EE4444"/>
<g id="Group_7">
<path id="Vector_2" d="M35.5589 5.33042L35.3598 4.71105H34.1874L33.9883 5.33042H33.3247L34.5192 1.76904H35.028L36.2446 5.33042H35.5589ZM34.7847 2.83082L34.3644 4.13592H35.1828L34.7847 2.83082Z" fill="white"/>
<path id="Vector_3" d="M37.7064 5.35211C37.3524 5.35211 37.0428 5.21938 36.8216 4.95394C36.4897 4.60001 36.4897 4.15761 36.4897 3.53824C36.4897 2.91887 36.4897 2.47646 36.8216 2.12253C37.0649 1.87921 37.3524 1.72437 37.7064 1.72437C38.3257 1.72437 38.8124 2.10041 38.923 2.8525H38.2594C38.193 2.56494 38.0161 2.34374 37.7064 2.34374C37.5294 2.34374 37.3967 2.4101 37.2861 2.5207C37.1534 2.67554 37.1312 2.83038 37.1312 3.51611C37.1312 4.20185 37.1755 4.37881 37.2861 4.51153C37.3746 4.62213 37.5294 4.6885 37.7064 4.6885C38.0382 4.6885 38.193 4.46729 38.2594 4.17973H38.923C38.8124 4.97606 38.3257 5.35211 37.7064 5.35211Z" fill="white"/>
<path id="Vector_4" d="M40.5408 5.35211C40.1869 5.35211 39.8772 5.21938 39.656 4.95394C39.3242 4.60001 39.3242 4.15761 39.3242 3.53824C39.3242 2.91887 39.3242 2.47646 39.656 2.12253C39.8993 1.87921 40.1869 1.72437 40.5408 1.72437C41.1602 1.72437 41.6469 2.10041 41.7575 2.8525H41.0938C41.0275 2.56494 40.8505 2.34374 40.5408 2.34374C40.3639 2.34374 40.2312 2.4101 40.1206 2.5207C39.9878 2.67554 39.9657 2.83038 39.9657 3.51611C39.9657 4.20185 40.0099 4.37881 40.1206 4.51153C40.209 4.62213 40.3639 4.6885 40.5408 4.6885C40.8726 4.6885 41.0275 4.46729 41.0938 4.17973H41.7575C41.6469 4.97606 41.1602 5.35211 40.5408 5.35211Z" fill="white"/>
<path id="Vector_5" d="M44.5423 3.67096C44.5423 4.13549 44.5423 4.60001 44.2105 4.95394C43.9671 5.21938 43.6796 5.35211 43.3257 5.35211C42.9717 5.35211 42.662 5.21938 42.4187 4.95394C42.109 4.60001 42.0869 4.06912 42.0869 3.69308V3.40551C42.0869 2.69766 42.1533 2.4101 42.4187 2.12253C42.662 1.85709 42.9496 1.72437 43.3257 1.72437C43.6796 1.72437 43.9893 1.85709 44.2105 2.12253C44.4317 2.38798 44.5423 2.71978 44.5423 3.29491V3.67096ZM43.7459 2.54282C43.6353 2.4101 43.5026 2.34374 43.3257 2.34374C43.1487 2.34374 43.016 2.4101 42.9054 2.54282C42.7505 2.71978 42.7505 3.05159 42.7505 3.49399V3.67096C42.7505 4.047 42.7505 4.37881 42.9054 4.53365C43.016 4.64425 43.1487 4.73274 43.3257 4.73274C43.5026 4.73274 43.6353 4.66637 43.7459 4.53365C43.8787 4.37881 43.9008 4.20185 43.9008 3.47187C43.9008 2.89675 43.8787 2.69766 43.7459 2.54282Z" fill="white"/>
<path id="Vector_6" d="M47.3778 5.70647V5.33042H45.21V1.76904H45.8515V4.71105H46.9796V1.76904H47.6211V4.71105H47.9971V5.70647H47.3778Z" fill="white"/>
<path id="Vector_7" d="M50.3874 5.33042V3.05202L49.1044 5.33042H48.5293V1.76904H49.1708V4.04744L50.4538 1.76904H51.0289V5.33042H50.3874Z" fill="white"/>
<path id="Vector_8" d="M53.6746 5.33042L53.4755 4.71105H52.3031L52.104 5.33042H51.4404L52.6349 1.76904H53.1437L54.3603 5.33042H53.6746ZM52.9004 2.83082L52.4801 4.13592H53.2985L52.9004 2.83082Z" fill="white"/>
<path id="Vector_9" d="M56.9266 5.70647V5.33042H54.7588V1.76904H55.4003V4.71105H56.5284V1.76904H57.1699V4.71105H57.546V5.70647H56.9266Z" fill="white"/>
<path id="Vector_10" d="M59.9367 5.33042V3.05202L58.6537 5.33042H58.0786V1.76904H58.7201V4.04744L60.0031 1.76904H60.5782V5.33042H59.9367Z" fill="white"/>
<path id="Vector_11" d="M61.8587 5.33042H61.0845L61.7702 3.84836C61.4163 3.67139 61.1951 3.31747 61.1951 2.87506C61.1951 2.18933 61.6375 1.76904 62.279 1.76904H63.562V5.33042H62.9205V3.98108H62.3896L61.8587 5.33042ZM62.9426 2.38841H62.3453C62.0578 2.38841 61.8587 2.5875 61.8587 2.87506C61.8587 3.16262 62.0578 3.38383 62.3453 3.38383H62.9426V2.38841Z" fill="white"/>
</g>
</g>
<g id="Group_8">
<path id="Vector_12" d="M37.9715 22.0296V19.9503H32.4414V10.5713H34.0783V18.3134H36.9318V10.5713H38.5687V18.3134H39.542V22.0296H37.9715Z" fill="#1C75BC"/>
<path id="Vector_13" d="M45.6268 19.9503V13.9336L42.353 19.9503H40.8931V10.5713H42.53V16.588L45.8038 10.5713H47.2637V19.9503H45.6268Z" fill="#1C75BC"/>
<path id="Vector_14" d="M53.8083 19.0655V20.0166H52.1714V19.0655C50.0036 18.977 48.8091 17.4064 48.8091 15.0617C48.8091 12.739 50.1584 11.3233 52.1714 11.2349V10.5049H53.8083V11.2349C55.8434 11.3233 57.1706 12.7169 57.1706 15.0617C57.1706 17.4064 55.9761 18.977 53.8083 19.0655ZM52.1493 12.8718C50.9769 12.9381 50.4239 13.7345 50.4239 15.1502C50.4239 16.5216 50.999 17.3843 52.1493 17.4507V12.8718ZM53.8083 17.4507C54.9585 17.3622 55.5337 16.5216 55.5337 15.1502C55.5337 13.7345 54.9807 12.9381 53.8083 12.8718V17.4507Z" fill="#1C75BC"/>
<path id="Vector_15" d="M61.9504 10.5713C63.5652 10.5713 64.7376 11.7879 64.7376 13.4912C64.7376 15.1944 63.5873 16.4111 61.9504 16.4111H60.3356V19.9503H58.6987V10.5713H61.9504ZM61.8619 14.7742C62.5919 14.7742 63.0786 14.2654 63.0786 13.4912C63.0786 12.717 62.5919 12.2082 61.8619 12.2082H60.3135V14.7742H61.8619Z" fill="#1C75BC"/>
<path id="Vector_16" d="M71.2371 18.9991C70.6398 19.6848 69.8656 20.0166 68.9587 20.0166C68.0518 20.0166 67.2554 19.6627 66.6803 18.9991C65.7955 17.9816 65.8397 16.4331 65.8397 15.3935V14.8847C65.8397 13.0045 66.0167 12.2524 66.6803 11.5224C67.2775 10.8588 68.0518 10.5049 68.9587 10.5049C69.8656 10.5049 70.6398 10.8588 71.2371 11.5224C71.8343 12.186 72.0777 13.093 72.0777 14.5971V15.2608C72.0777 16.6101 72.1219 17.9594 71.2371 18.9991ZM69.9983 12.6284C69.7329 12.2966 69.379 12.1197 68.9366 12.1197C68.4942 12.1197 68.1402 12.2966 67.8748 12.6284C67.4987 13.093 67.4766 13.9778 67.4766 15.128C67.4766 16.2783 67.4324 17.3843 67.8748 17.8931C68.1624 18.2028 68.5163 18.4019 68.9366 18.4019C69.3569 18.4019 69.7329 18.2249 69.9983 17.8931C70.3523 17.4507 70.4186 16.9861 70.4186 15.0838C70.4186 13.5575 70.3301 13.0487 69.9983 12.6284Z" fill="#1C75BC"/>
<path id="Vector_17" d="M79.3533 15.659C79.7293 16.1014 79.8842 16.6102 79.8842 17.2738C79.8842 18.9107 78.8888 19.9724 77.2961 19.9724H73.7568V10.5713H77.1413C78.7339 10.5713 79.7515 11.5667 79.7515 13.1594C79.7515 14.0663 79.3975 14.7078 78.7118 15.1502C79.0436 15.3493 79.1763 15.4599 79.3533 15.659ZM77.0085 14.376C77.6943 14.376 78.0924 13.9778 78.0924 13.2921C78.0924 12.6285 77.6721 12.2082 77.0085 12.2082H75.3937V14.376H77.0085ZM77.1191 18.3134C77.8049 18.3134 78.2252 17.871 78.2252 17.1632C78.2252 16.4553 77.8049 16.0129 77.1191 16.0129H75.3937V18.3134H77.1191Z" fill="#1C75BC"/>
<path id="Vector_18" d="M86.2235 19.9503L85.7147 18.2913H82.7063L82.1976 19.9503H80.4722L83.569 10.5713H84.852L87.9267 19.9503H86.2235ZM84.2548 13.3363L83.193 16.7429H85.2944L84.2548 13.3363Z" fill="#1C75BC"/>
<path id="Vector_19" d="M93.0736 19.9503V16.4111H91.7907L90.3528 19.9503H88.4062L90.1538 16.0571C89.2468 15.6147 88.6938 14.6857 88.6938 13.4912C88.6938 11.7879 89.8662 10.5713 91.481 10.5713H94.7548V19.9503H93.0736ZM93.0736 12.2082H91.5252C90.7953 12.2082 90.3086 12.717 90.3086 13.4912C90.3086 14.2654 90.7953 14.7742 91.5252 14.7742H93.0736V12.2082Z" fill="#1C75BC"/>
<path id="Vector_20" d="M104.393 14.7971C104.393 14.7971 104.415 15.5492 104.393 15.6377C104.393 16.6995 104.415 18.0709 103.552 19C103.243 19.376 102.844 19.6415 102.402 19.8184C102.048 19.9733 101.672 20.0396 101.252 20.0396C100.256 20.0396 99.6592 19.7078 98.9292 18.9557L99.9689 17.7834C100.234 18.093 100.898 18.4027 101.274 18.4027C101.716 18.4027 102.07 18.2258 102.336 17.9161C102.69 17.4958 102.734 16.8543 102.756 16.0359H100.301V14.4432H102.734C102.712 13.5584 102.623 13.2487 102.491 12.9611C102.291 12.4524 101.805 12.1205 101.274 12.1205C100.743 12.1205 100.433 12.2975 99.991 12.762L98.9513 11.5454C99.6592 10.8154 100.301 10.4836 101.252 10.4836C103.707 10.5058 104.393 12.4966 104.393 14.7971Z" fill="#1C75BC"/>
<path id="Vector_21" d="M109.374 10.5715C110.989 10.5715 112.161 11.7882 112.161 13.4914C112.161 15.1947 111.011 16.4113 109.374 16.4113H107.759V19.9506H106.1V10.5715H109.374ZM109.285 14.7744C110.015 14.7744 110.502 14.2656 110.502 13.4914C110.502 12.7172 110.015 12.2084 109.285 12.2084H107.737V14.7744H109.285Z" fill="#1C75BC"/>
<path id="Vector_22" d="M117.691 19.9506L117.182 18.2915H114.174L113.665 19.9506H111.94L115.037 10.5715H116.32L119.394 19.9506H117.691ZM115.745 13.3366L114.683 16.7431H116.784L115.745 13.3366Z" fill="#1C75BC"/>
<path id="Vector_23" d="M35.6556 24.3315V32.0736H34.0187V24.3315H31.8066V22.6946H37.8676V24.3315H35.6556Z" fill="#1C75BC"/>
<path id="Vector_24" d="M42.4617 22.6941C44.0764 22.6941 45.2488 23.9107 45.2488 25.614C45.2488 27.3172 44.0986 28.5339 42.4617 28.5339H40.8469V32.0731H39.21V22.6941H42.4617ZM42.3953 26.897C43.1253 26.897 43.6119 26.3882 43.6119 25.614C43.6119 24.8398 43.1253 24.331 42.3953 24.331H40.8469V26.897H42.3953Z" fill="#1C75BC"/>
<path id="Vector_25" d="M50.7985 32.0736L50.3119 30.4146H47.3035L46.7947 32.0736H45.0693L48.1441 22.6946H49.427L52.5018 32.0736H50.7985ZM48.8298 25.4596L47.768 28.8662H49.8695L48.8298 25.4596Z" fill="#1C75BC"/>
<path id="Vector_26" d="M58.0563 32.0731V28.1357H55.2028V32.0731H53.5659V22.6941H55.2028V26.5209H58.0563V22.6941H59.6933V32.0731H58.0563Z" fill="#1C75BC"/>
<path id="Vector_27" d="M65.7553 31.8966C65.4014 32.0514 64.9811 32.1399 64.5166 32.1399C63.6096 32.1399 62.8133 31.786 62.2161 31.1224C61.3755 30.1933 61.3755 28.9546 61.3755 27.3841V27.008C61.3755 25.1278 61.5525 24.3757 62.2161 23.6457C62.8133 22.9821 63.5875 22.6282 64.4945 22.6282C64.959 22.6282 65.3793 22.7167 65.7332 22.8715C66.1314 23.0485 66.3526 23.2033 66.8171 23.7121L65.7332 24.9287C65.2687 24.4199 64.9811 24.2651 64.4945 24.2651C64.0521 24.2651 63.6981 24.4199 63.4327 24.7517C63.0124 25.2605 63.0124 26.2338 63.0124 27.1407V27.6495C63.0124 29.1316 63.1009 29.6624 63.4327 30.0606C63.6981 30.3924 64.0299 30.5473 64.4945 30.5473C64.9811 30.5473 65.2687 30.3924 65.7332 29.8837L66.8171 31.1003C66.3968 31.5648 66.1535 31.7196 65.7553 31.8966Z" fill="#1C75BC"/>
<path id="Vector_28" d="M72.8532 32.0736V24.3315H69.9997V32.0736H68.3628V22.6946H74.5123V32.0736H72.8532Z" fill="#1C75BC"/>
<path id="Vector_29" d="M81.5701 31.1217C80.9728 31.8074 80.1986 32.1392 79.2917 32.1392C78.3848 32.1392 77.5884 31.7853 77.0133 31.1217C76.1285 30.1041 76.1727 28.5557 76.1727 27.516V27.0073C76.1727 25.127 76.3497 24.375 77.0133 23.645C77.6106 22.9814 78.3848 22.6274 79.2917 22.6274C80.1986 22.6274 80.9728 22.9814 81.5701 23.645C82.1673 24.3086 82.4107 25.2155 82.4107 26.7197V27.3833C82.4107 28.7327 82.477 30.082 81.5701 31.1217ZM80.3535 24.751C80.088 24.4192 79.7341 24.2422 79.2917 24.2422C78.8714 24.2422 78.4954 24.4192 78.2299 24.751C77.8539 25.2155 77.8318 26.1003 77.8318 27.2506C77.8318 28.4009 77.7875 29.5069 78.2299 30.0156C78.5175 30.3253 78.8714 30.5244 79.2917 30.5244C79.712 30.5244 80.088 30.3474 80.3535 30.0156C80.7074 29.5732 80.7738 29.1087 80.7738 27.2064C80.7516 25.6579 80.6853 25.1492 80.3535 24.751Z" fill="#1C75BC"/>
<path id="Vector_30" d="M87.3635 22.6941C88.9783 22.6941 90.1507 23.9107 90.1507 25.614C90.1507 27.3172 89.0004 28.5339 87.3635 28.5339H85.7487V32.0731H84.1118V22.6941H87.3635ZM87.275 26.897C88.005 26.897 88.4916 26.3882 88.4916 25.614C88.4916 24.8398 88.005 24.331 87.275 24.331H85.7266V26.897H87.275Z" fill="#1C75BC"/>
<path id="Vector_31" d="M94.7513 24.3315V32.0736H93.1144V24.3315H90.9023V22.6946H96.9633V24.3315H94.7513Z" fill="#1C75BC"/>
<path id="Vector_32" d="M102.382 32.0726L101.895 30.4136H98.8865L98.3777 32.0726H96.6523L99.7271 22.6936H101.01L104.085 32.0726H102.382ZM100.413 25.4586L99.351 28.8652H101.452L100.413 25.4586Z" fill="#1C75BC"/>
</g>
</g>
</g>
<g id="Group_9">
<path id="Vector_33" d="M26.2677 20.6325L14.4066 13.7447L19.1819 0.000488281H14.5607L13.6364 2.62068H10.7867L8.16804 10.1361L0.620117 5.75864L5.51857 17.7142L1.52895 29.1992H6.18093L7.08977 26.5633H9.15389L12.0036 33.4982L26.2677 20.6325Z" fill="white"/>
<g id="Group_10">
<g id="Group_11">
<path id="Vector_34" d="M0.621582 5.75903L26.2691 20.6329L12.0051 33.4986L0.621582 5.75903Z" fill="url(#paint0_linear_1001_1748)"/>
<g id="Group_12">
<path id="Vector_35" d="M10.7871 2.61963L1.5293 29.1981H6.18129L15.4236 2.61963H10.7871Z" fill="url(#paint1_linear_1001_1748)"/>
<path id="Vector_36" d="M14.5637 -0.000244141L5.29053 26.5626H9.95792L19.1849 -0.000244141H14.5637Z" fill="url(#paint2_linear_1001_1748)"/>
<path id="Vector_37" d="M5.29053 26.5622H7.09279L15.4263 2.61963H13.6395L5.29053 26.5622Z" fill="url(#paint3_linear_1001_1748)"/>
</g>
</g>
<path id="Vector_38" opacity="0.43" d="M0.621094 5.75903L26.2686 20.6329L12.0046 33.4986L0.621094 5.75903Z" fill="#C6C5C4"/>
</g>
</g>
</g>
<g id="Group_13">
<g id="&#208;&#144;&#208;&#161;&#208;&#161;&#208;&#158;&#208;&#166;&#208;&#152;&#208;&#144;&#208;&#166;&#208;&#152;&#208;&#175; &#208;&#159;&#208;&#158; &#208;&#160;&#208;&#144;&#208;&#151;&#208;&#146;&#208;&#152;&#208;&#162;&#208;&#152;&#208;&#174;">
<path d="M32.6979 38.1057H32.4365L33.1925 36.0469H33.4498L34.2058 38.1057H33.9444L33.3292 36.3727H33.3131L32.6979 38.1057ZM32.7944 37.3015H33.8479V37.5227H32.7944V37.3015Z" fill="#30373B"/>
<path d="M36.0864 36.6903H35.8371C35.8223 36.6186 35.7965 36.5556 35.7597 36.5013C35.7235 36.447 35.6792 36.4015 35.627 36.3646C35.5754 36.3271 35.5181 36.2989 35.4551 36.2802C35.3921 36.2614 35.3264 36.252 35.258 36.252C35.1334 36.252 35.0205 36.2835 34.9193 36.3465C34.8187 36.4095 34.7387 36.5023 34.679 36.625C34.62 36.7476 34.5905 36.8981 34.5905 37.0763C34.5905 37.2546 34.62 37.4051 34.679 37.5277C34.7387 37.6503 34.8187 37.7432 34.9193 37.8062C35.0205 37.8691 35.1334 37.9006 35.258 37.9006C35.3264 37.9006 35.3921 37.8913 35.4551 37.8725C35.5181 37.8537 35.5754 37.8259 35.627 37.7891C35.6792 37.7515 35.7235 37.7056 35.7597 37.6513C35.7965 37.5964 35.8223 37.5334 35.8371 37.4624H36.0864C36.0676 37.5676 36.0334 37.6617 35.9838 37.7448C35.9342 37.8279 35.8726 37.8986 35.7989 37.9569C35.7251 38.0146 35.6424 38.0585 35.5506 38.0886C35.4594 38.1188 35.3619 38.1339 35.258 38.1339C35.0824 38.1339 34.9263 38.091 34.7896 38.0052C34.6529 37.9194 34.5453 37.7974 34.4669 37.6393C34.3885 37.4811 34.3493 37.2935 34.3493 37.0763C34.3493 36.8592 34.3885 36.6715 34.4669 36.5134C34.5453 36.3552 34.6529 36.2333 34.7896 36.1475C34.9263 36.0617 35.0824 36.0188 35.258 36.0188C35.3619 36.0188 35.4594 36.0339 35.5506 36.064C35.6424 36.0942 35.7251 36.1384 35.7989 36.1967C35.8726 36.2544 35.9342 36.3247 35.9838 36.4078C36.0334 36.4903 36.0676 36.5844 36.0864 36.6903Z" fill="#30373B"/>
<path d="M38.1459 36.6903H37.8966C37.8818 36.6186 37.856 36.5556 37.8192 36.5013C37.783 36.447 37.7388 36.4015 37.6865 36.3646C37.6349 36.3271 37.5776 36.2989 37.5146 36.2802C37.4516 36.2614 37.3859 36.252 37.3176 36.252C37.1929 36.252 37.08 36.2835 36.9788 36.3465C36.8783 36.4095 36.7982 36.5023 36.7385 36.625C36.6796 36.7476 36.6501 36.8981 36.6501 37.0763C36.6501 37.2546 36.6796 37.4051 36.7385 37.5277C36.7982 37.6503 36.8783 37.7432 36.9788 37.8062C37.08 37.8691 37.1929 37.9006 37.3176 37.9006C37.3859 37.9006 37.4516 37.8913 37.5146 37.8725C37.5776 37.8537 37.6349 37.8259 37.6865 37.7891C37.7388 37.7515 37.783 37.7056 37.8192 37.6513C37.856 37.5964 37.8818 37.5334 37.8966 37.4624H38.1459C38.1271 37.5676 38.0929 37.6617 38.0434 37.7448C37.9938 37.8279 37.9321 37.8986 37.8584 37.9569C37.7847 38.0146 37.7019 38.0585 37.6101 38.0886C37.5189 38.1188 37.4214 38.1339 37.3176 38.1339C37.142 38.1339 36.9858 38.091 36.8491 38.0052C36.7124 37.9194 36.6048 37.7974 36.5264 37.6393C36.448 37.4811 36.4088 37.2935 36.4088 37.0763C36.4088 36.8592 36.448 36.6715 36.5264 36.5134C36.6048 36.3552 36.7124 36.2333 36.8491 36.1475C36.9858 36.0617 37.142 36.0188 37.3176 36.0188C37.4214 36.0188 37.5189 36.0339 37.6101 36.064C37.7019 36.0942 37.7847 36.1384 37.8584 36.1967C37.9321 36.2544 37.9938 36.3247 38.0434 36.4078C38.0929 36.4903 38.1271 36.5844 38.1459 36.6903Z" fill="#30373B"/>
<path d="M40.2858 37.0763C40.2858 37.2935 40.2466 37.4811 40.1682 37.6393C40.0898 37.7974 39.9822 37.9194 39.8455 38.0052C39.7088 38.091 39.5527 38.1339 39.3771 38.1339C39.2015 38.1339 39.0453 38.091 38.9086 38.0052C38.7719 37.9194 38.6644 37.7974 38.5859 37.6393C38.5075 37.4811 38.4683 37.2935 38.4683 37.0763C38.4683 36.8592 38.5075 36.6715 38.5859 36.5134C38.6644 36.3552 38.7719 36.2333 38.9086 36.1475C39.0453 36.0617 39.2015 36.0188 39.3771 36.0188C39.5527 36.0188 39.7088 36.0617 39.8455 36.1475C39.9822 36.2333 40.0898 36.3552 40.1682 36.5134C40.2466 36.6715 40.2858 36.8592 40.2858 37.0763ZM40.0446 37.0763C40.0446 36.8981 40.0148 36.7476 39.9551 36.625C39.8961 36.5023 39.816 36.4095 39.7148 36.3465C39.6143 36.2835 39.5017 36.252 39.3771 36.252C39.2524 36.252 39.1395 36.2835 39.0383 36.3465C38.9378 36.4095 38.8577 36.5023 38.7981 36.625C38.7391 36.7476 38.7096 36.8981 38.7096 37.0763C38.7096 37.2546 38.7391 37.4051 38.7981 37.5277C38.8577 37.6503 38.9378 37.7432 39.0383 37.8062C39.1395 37.8691 39.2524 37.9006 39.3771 37.9006C39.5017 37.9006 39.6143 37.8691 39.7148 37.8062C39.816 37.7432 39.8961 37.6503 39.9551 37.5277C40.0148 37.4051 40.0446 37.2546 40.0446 37.0763Z" fill="#30373B"/>
<path d="M42.4542 37.8685L42.426 38.5923H42.1687V38.1057H42.0239V37.8685H42.4542ZM40.705 38.1057V36.0469H40.9423V37.8765H42.0038V36.0469H42.2411V38.1057H40.705Z" fill="#30373B"/>
<path d="M42.8309 36.0469H43.0762V37.6674H43.0963L44.2222 36.0469H44.4634V38.1057H44.2141V36.4893H44.194L43.0722 38.1057H42.8309V36.0469Z" fill="#30373B"/>
<path d="M45.0467 38.1057H44.7854L45.5413 36.0469H45.7987L46.5546 38.1057H46.2933L45.678 36.3727H45.662L45.0467 38.1057ZM45.1432 37.3015H46.1968V37.5227H45.1432V37.3015Z" fill="#30373B"/>
<path d="M48.6245 37.8685L48.5963 38.5923H48.339V38.1057H48.1942V37.8685H48.6245ZM46.8753 38.1057V36.0469H47.1126V37.8765H48.1741V36.0469H48.4113V38.1057H46.8753Z" fill="#30373B"/>
<path d="M49.0012 36.0469H49.2465V37.6674H49.2666L50.3925 36.0469H50.6337V38.1057H50.3844V36.4893H50.3643L49.2424 38.1057H49.0012V36.0469Z" fill="#30373B"/>
<path d="M52.5319 38.1057H52.2826V36.2681H51.8443C51.7331 36.2681 51.6436 36.2852 51.5759 36.3194C51.5082 36.3529 51.459 36.4005 51.4281 36.4621C51.3973 36.5238 51.3819 36.5958 51.3819 36.6782C51.3819 36.7607 51.397 36.8317 51.4271 36.8914C51.4579 36.9503 51.5069 36.9959 51.5739 37.0281C51.6416 37.0602 51.7304 37.0763 51.8403 37.0763H52.3952V37.3015H51.8322C51.6727 37.3015 51.5417 37.275 51.4392 37.2221C51.3366 37.1685 51.2606 37.0948 51.211 37.0009C51.1614 36.9071 51.1366 36.7996 51.1366 36.6782C51.1366 36.5569 51.1614 36.4487 51.211 36.3536C51.2606 36.2584 51.337 36.1837 51.4402 36.1294C51.5434 36.0744 51.6754 36.0469 51.8363 36.0469H52.5319V38.1057ZM51.5628 37.1809H51.8443L51.3457 38.1057H51.0562L51.5628 37.1809Z" fill="#30373B"/>
<path d="M55.368 36.0469V38.1057H55.1187V36.2681H54.0813V38.1057H53.832V36.0469H55.368Z" fill="#30373B"/>
<path d="M57.608 37.0763C57.608 37.2935 57.5688 37.4811 57.4903 37.6393C57.4119 37.7974 57.3044 37.9194 57.1677 38.0052C57.0309 38.091 56.8748 38.1339 56.6992 38.1339C56.5236 38.1339 56.3675 38.091 56.2308 38.0052C56.094 37.9194 55.9865 37.7974 55.9081 37.6393C55.8297 37.4811 55.7904 37.2935 55.7904 37.0763C55.7904 36.8592 55.8297 36.6715 55.9081 36.5134C55.9865 36.3552 56.094 36.2333 56.2308 36.1475C56.3675 36.0617 56.5236 36.0188 56.6992 36.0188C56.8748 36.0188 57.0309 36.0617 57.1677 36.1475C57.3044 36.2333 57.4119 36.3552 57.4903 36.5134C57.5688 36.6715 57.608 36.8592 57.608 37.0763ZM57.3667 37.0763C57.3667 36.8981 57.3369 36.7476 57.2772 36.625C57.2183 36.5023 57.1382 36.4095 57.037 36.3465C56.9364 36.2835 56.8239 36.252 56.6992 36.252C56.5745 36.252 56.4616 36.2835 56.3604 36.3465C56.2599 36.4095 56.1798 36.5023 56.1202 36.625C56.0612 36.7476 56.0317 36.8981 56.0317 37.0763C56.0317 37.2546 56.0612 37.4051 56.1202 37.5277C56.1798 37.6503 56.2599 37.7432 56.3604 37.8062C56.4616 37.8691 56.5745 37.9006 56.6992 37.9006C56.8239 37.9006 56.9364 37.8691 57.037 37.8062C57.1382 37.7432 57.2183 37.6503 57.2772 37.5277C57.3369 37.4051 57.3667 37.2546 57.3667 37.0763Z" fill="#30373B"/>
<path d="M58.8233 38.1057V36.0469H59.519C59.6805 36.0469 59.8125 36.0761 59.915 36.1344C60.0182 36.192 60.0946 36.2701 60.1442 36.3686C60.1938 36.4671 60.2186 36.5771 60.2186 36.6984C60.2186 36.8197 60.1938 36.9299 60.1442 37.0291C60.0953 37.1283 60.0196 37.2074 59.917 37.2663C59.8145 37.3246 59.6831 37.3538 59.523 37.3538H59.0244V37.1326H59.5149C59.6255 37.1326 59.7143 37.1135 59.7813 37.0753C59.8483 37.0371 59.8969 36.9855 59.9271 36.9205C59.9579 36.8548 59.9733 36.7808 59.9733 36.6984C59.9733 36.6159 59.9579 36.5422 59.9271 36.4772C59.8969 36.4122 59.848 36.3613 59.7803 36.3244C59.7126 36.2869 59.6228 36.2681 59.5109 36.2681H59.0726V38.1057H58.8233Z" fill="#30373B"/>
<path d="M60.4946 38.1057H60.2332L60.9891 36.0469H61.2465L62.0024 38.1057H61.7411L61.1259 36.3727H61.1098L60.4946 38.1057ZM60.5911 37.3015H61.6446V37.5227H60.5911V37.3015Z" fill="#30373B"/>
<path d="M62.9826 38.1339C62.8499 38.1339 62.7316 38.1111 62.6277 38.0655C62.5245 38.0199 62.4424 37.9566 62.3814 37.8755C62.3211 37.7938 62.2883 37.6989 62.2829 37.591H62.5362C62.5416 37.6574 62.5644 37.7147 62.6046 37.7629C62.6448 37.8105 62.6974 37.8474 62.7624 37.8735C62.8274 37.8996 62.8995 37.9127 62.9785 37.9127C63.067 37.9127 63.1454 37.8973 63.2138 37.8665C63.2821 37.8356 63.3358 37.7927 63.3746 37.7378C63.4135 37.6828 63.4329 37.6192 63.4329 37.5468C63.4329 37.4711 63.4142 37.4044 63.3766 37.3467C63.3391 37.2884 63.2841 37.2429 63.2118 37.21C63.1394 37.1772 63.0509 37.1608 62.9464 37.1608H62.7815V36.9396H62.9464C63.0281 36.9396 63.0999 36.9249 63.1615 36.8954C63.2238 36.8659 63.2724 36.8243 63.3073 36.7707C63.3428 36.7171 63.3605 36.6541 63.3605 36.5817C63.3605 36.512 63.3451 36.4514 63.3143 36.3998C63.2835 36.3482 63.2399 36.308 63.1836 36.2792C63.128 36.2503 63.0623 36.2359 62.9866 36.2359C62.9156 36.2359 62.8485 36.249 62.7855 36.2751C62.7232 36.3006 62.6723 36.3378 62.6327 36.3867C62.5932 36.435 62.5718 36.4933 62.5684 36.5616H62.3271C62.3312 36.4537 62.3637 36.3592 62.4247 36.2782C62.4856 36.1964 62.5654 36.1327 62.6639 36.0872C62.7631 36.0416 62.872 36.0188 62.9906 36.0188C63.1179 36.0188 63.2272 36.0446 63.3183 36.0962C63.4095 36.1471 63.4795 36.2145 63.5284 36.2983C63.5773 36.382 63.6018 36.4725 63.6018 36.5697C63.6018 36.6856 63.5713 36.7845 63.5103 36.8662C63.45 36.948 63.3679 37.0046 63.264 37.0361V37.0522C63.3941 37.0737 63.4956 37.1289 63.5686 37.2181C63.6417 37.3065 63.6782 37.4161 63.6782 37.5468C63.6782 37.6587 63.6477 37.7592 63.5867 37.8484C63.5264 37.9368 63.444 38.0065 63.3394 38.0575C63.2349 38.1084 63.1159 38.1339 62.9826 38.1339Z" fill="#30373B"/>
<path d="M64.1255 38.1057V36.0469H64.8453C64.9887 36.0469 65.107 36.0717 65.2002 36.1213C65.2933 36.1703 65.3627 36.2363 65.4083 36.3194C65.4538 36.4018 65.4766 36.4933 65.4766 36.5938C65.4766 36.6823 65.4609 36.7553 65.4294 36.813C65.3985 36.8706 65.3577 36.9162 65.3067 36.9497C65.2565 36.9832 65.2018 37.008 65.1429 37.0241V37.0442C65.2059 37.0482 65.2692 37.0703 65.3329 37.1105C65.3965 37.1507 65.4498 37.2084 65.4927 37.2834C65.5356 37.3585 65.557 37.4503 65.557 37.5589C65.557 37.6621 65.5336 37.7549 65.4867 37.8373C65.4398 37.9197 65.3657 37.9851 65.2645 38.0333C65.1633 38.0816 65.0316 38.1057 64.8694 38.1057H64.1255ZM64.3749 37.8846H64.8694C65.0323 37.8846 65.1479 37.8531 65.2163 37.7901C65.2853 37.7264 65.3198 37.6493 65.3198 37.5589C65.3198 37.4892 65.302 37.4248 65.2665 37.3658C65.231 37.3062 65.1804 37.2586 65.1147 37.2231C65.049 37.1869 64.9713 37.1688 64.8815 37.1688H64.3749V37.8846ZM64.3749 36.9517H64.8373C64.9123 36.9517 64.98 36.9369 65.0403 36.9074C65.1013 36.878 65.1496 36.8364 65.1851 36.7828C65.2213 36.7292 65.2394 36.6662 65.2394 36.5938C65.2394 36.5033 65.2079 36.4266 65.1449 36.3636C65.0819 36.2999 64.982 36.2681 64.8453 36.2681H64.3749V36.9517Z" fill="#30373B"/>
<path d="M65.9667 36.0469H66.212V37.6674H66.2321L67.358 36.0469H67.5992V38.1057H67.3499V36.4893H67.3298L66.2079 38.1057H65.9667V36.0469Z" fill="#30373B"/>
<path d="M67.9855 36.2681V36.0469H69.5296V36.2681H68.8822V38.1057H68.6329V36.2681H67.9855Z" fill="#30373B"/>
<path d="M69.9143 36.0469H70.1596V37.6674H70.1797L71.3056 36.0469H71.5469V38.1057H71.2976V36.4893H71.2775L70.1556 38.1057H69.9143V36.0469Z" fill="#30373B"/>
<path d="M72.295 36.0469V38.1057H72.0457V36.0469H72.295ZM72.7444 36.9838V37.205H72.1141V36.9838H72.7444ZM74.4905 37.0763C74.4905 37.2935 74.4513 37.4811 74.3729 37.6393C74.2945 37.7974 74.1869 37.9194 74.0502 38.0052C73.9135 38.091 73.7574 38.1339 73.5818 38.1339C73.4062 38.1339 73.25 38.091 73.1133 38.0052C72.9766 37.9194 72.869 37.7974 72.7906 37.6393C72.7122 37.4811 72.673 37.2935 72.673 37.0763C72.673 36.8592 72.7122 36.6715 72.7906 36.5134C72.869 36.3552 72.9766 36.2333 73.1133 36.1475C73.25 36.0617 73.4062 36.0188 73.5818 36.0188C73.7574 36.0188 73.9135 36.0617 74.0502 36.1475C74.1869 36.2333 74.2945 36.3552 74.3729 36.5134C74.4513 36.6715 74.4905 36.8592 74.4905 37.0763ZM74.2493 37.0763C74.2493 36.8981 74.2194 36.7476 74.1598 36.625C74.1008 36.5023 74.0207 36.4095 73.9195 36.3465C73.819 36.2835 73.7064 36.252 73.5818 36.252C73.4571 36.252 73.3442 36.2835 73.243 36.3465C73.1425 36.4095 73.0624 36.5023 73.0027 36.625C72.9438 36.7476 72.9143 36.8981 72.9143 37.0763C72.9143 37.2546 72.9438 37.4051 73.0027 37.5277C73.0624 37.6503 73.1425 37.7432 73.243 37.8062C73.3442 37.8691 73.4571 37.9006 73.5818 37.9006C73.7064 37.9006 73.819 37.8691 73.9195 37.8062C74.0207 37.7432 74.1008 37.6503 74.1598 37.5277C74.2194 37.4051 74.2493 37.2546 74.2493 37.0763Z" fill="#30373B"/>
</g>
<g id="&#208;&#166;&#208;&#152;&#208;&#164;&#208;&#160;&#208;&#158;&#208;&#146;&#208;&#171;&#208;&#165; &#208;&#162;&#208;&#149;&#208;&#165;&#208;&#157;&#208;&#158;&#208;&#155;&#208;&#158;&#208;&#147;&#208;&#152;&#208;&#153; &#208;&#162;&#208;&#160;&#208;&#144;&#208;&#157;&#208;&#161;&#208;&#159;&#208;&#158;&#208;&#160;&#208;&#162;&#208;&#144;">
<path d="M34.3683 41.2762L34.3401 41.9999H34.0828V41.5134H33.938V41.2762H34.3683ZM32.6191 41.5134V39.4546H32.8564V41.2842H33.9179V39.4546H34.1552V41.5134H32.6191Z" fill="#30373B"/>
<path d="M34.745 39.4546H34.9903V41.0751H35.0104L36.1363 39.4546H36.3776V41.5134H36.1282V39.8969H36.1081L34.9863 41.5134H34.745V39.4546Z" fill="#30373B"/>
<path d="M37.5841 39.6999H37.9098C38.0626 39.6999 38.1983 39.7341 38.3169 39.8025C38.4356 39.8708 38.5287 39.966 38.5964 40.0879C38.6641 40.2099 38.6979 40.3513 38.6979 40.5122C38.6979 40.673 38.6641 40.8147 38.5964 40.9374C38.5287 41.06 38.4356 41.1559 38.3169 41.2249C38.1983 41.2939 38.0626 41.3284 37.9098 41.3284H37.5841C37.4313 41.3284 37.2956 41.2943 37.177 41.2259C37.0584 41.1575 36.9652 41.0624 36.8975 40.9404C36.8298 40.8184 36.796 40.677 36.796 40.5162C36.796 40.3553 36.8298 40.2136 36.8975 40.091C36.9652 39.9683 37.0584 39.8725 37.177 39.8035C37.2956 39.7344 37.4313 39.6999 37.5841 39.6999ZM37.5841 39.9211C37.4675 39.9211 37.369 39.9455 37.2886 39.9945C37.2088 40.0434 37.1482 40.1124 37.1066 40.2015C37.0657 40.2907 37.0453 40.3956 37.0453 40.5162C37.0453 40.6355 37.0657 40.7394 37.1066 40.8278C37.1482 40.9163 37.2088 40.985 37.2886 41.0339C37.369 41.0828 37.4675 41.1073 37.5841 41.1073H37.9098C38.0264 41.1073 38.1246 41.0828 38.2044 41.0339C38.2848 40.985 38.3454 40.9159 38.3863 40.8268C38.4279 40.7377 38.4486 40.6328 38.4486 40.5122C38.4486 40.3929 38.4279 40.289 38.3863 40.2005C38.3454 40.1121 38.2848 40.0434 38.2044 39.9945C38.1246 39.9455 38.0264 39.9211 37.9098 39.9211H37.5841ZM37.8736 39.4184V41.5978H37.6243V39.4184H37.8736Z" fill="#30373B"/>
<path d="M39.1156 41.5134V39.4546H39.8113C39.9728 39.4546 40.1048 39.4838 40.2073 39.5421C40.3105 39.5997 40.3869 39.6778 40.4365 39.7763C40.4861 39.8748 40.5109 39.9847 40.5109 40.106C40.5109 40.2273 40.4861 40.3376 40.4365 40.4368C40.3876 40.536 40.3119 40.615 40.2093 40.674C40.1068 40.7323 39.9755 40.7615 39.8153 40.7615H39.3167V40.5403H39.8072C39.9178 40.5403 40.0066 40.5212 40.0736 40.483C40.1407 40.4448 40.1892 40.3932 40.2194 40.3282C40.2502 40.2625 40.2656 40.1885 40.2656 40.106C40.2656 40.0236 40.2502 39.9499 40.2194 39.8849C40.1892 39.8199 40.1403 39.7689 40.0726 39.7321C40.0049 39.6946 39.9151 39.6758 39.8032 39.6758H39.3649V41.5134H39.1156Z" fill="#30373B"/>
<path d="M42.6496 40.484C42.6496 40.7012 42.6104 40.8888 42.532 41.047C42.4536 41.2051 42.346 41.3271 42.2093 41.4129C42.0726 41.4987 41.9164 41.5416 41.7409 41.5416C41.5653 41.5416 41.4091 41.4987 41.2724 41.4129C41.1357 41.3271 41.0281 41.2051 40.9497 41.047C40.8713 40.8888 40.8321 40.7012 40.8321 40.484C40.8321 40.2669 40.8713 40.0792 40.9497 39.9211C41.0281 39.7629 41.1357 39.6409 41.2724 39.5552C41.4091 39.4694 41.5653 39.4265 41.7409 39.4265C41.9164 39.4265 42.0726 39.4694 42.2093 39.5552C42.346 39.6409 42.4536 39.7629 42.532 39.9211C42.6104 40.0792 42.6496 40.2669 42.6496 40.484ZM42.4083 40.484C42.4083 40.3058 42.3785 40.1553 42.3189 40.0327C42.2599 39.91 42.1798 39.8172 42.0786 39.7542C41.9781 39.6912 41.8655 39.6597 41.7409 39.6597C41.6162 39.6597 41.5033 39.6912 41.4021 39.7542C41.3016 39.8172 41.2215 39.91 41.1618 40.0327C41.1029 40.1553 41.0734 40.3058 41.0734 40.484C41.0734 40.6623 41.1029 40.8127 41.1618 40.9354C41.2215 41.058 41.3016 41.1508 41.4021 41.2138C41.5033 41.2768 41.6162 41.3083 41.7409 41.3083C41.8655 41.3083 41.9781 41.2768 42.0786 41.2138C42.1798 41.1508 42.2599 41.058 42.3189 40.9354C42.3785 40.8127 42.4083 40.6623 42.4083 40.484Z" fill="#30373B"/>
<path d="M43.0688 41.5134V39.4546H43.7886C43.932 39.4546 44.0503 39.4794 44.1434 39.529C44.2366 39.5779 44.3059 39.644 44.3515 39.7271C44.3971 39.8095 44.4199 39.901 44.4199 40.0015C44.4199 40.09 44.4041 40.163 44.3726 40.2206C44.3418 40.2783 44.3009 40.3238 44.25 40.3574C44.1997 40.3909 44.1451 40.4157 44.0861 40.4317V40.4519C44.1491 40.4559 44.2125 40.478 44.2761 40.5182C44.3398 40.5584 44.3931 40.616 44.436 40.6911C44.4788 40.7662 44.5003 40.858 44.5003 40.9665C44.5003 41.0697 44.4768 41.1626 44.4299 41.245C44.383 41.3274 44.309 41.3928 44.2078 41.441C44.1066 41.4893 43.9749 41.5134 43.8127 41.5134H43.0688ZM43.3181 41.2922H43.8127C43.9755 41.2922 44.0912 41.2607 44.1595 41.1978C44.2285 41.1341 44.2631 41.057 44.2631 40.9665C44.2631 40.8968 44.2453 40.8325 44.2098 40.7735C44.1743 40.7139 44.1237 40.6663 44.058 40.6308C43.9923 40.5946 43.9146 40.5765 43.8248 40.5765H43.3181V41.2922ZM43.3181 40.3594H43.7805C43.8556 40.3594 43.9233 40.3446 43.9836 40.3151C44.0446 40.2856 44.0928 40.2441 44.1283 40.1905C44.1645 40.1369 44.1826 40.0739 44.1826 40.0015C44.1826 39.911 44.1511 39.8343 44.0881 39.7713C44.0251 39.7076 43.9253 39.6758 43.7886 39.6758H43.3181V40.3594Z" fill="#30373B"/>
<path d="M45.0949 40.3192H45.682C45.8294 40.3192 45.9537 40.3433 46.0549 40.3915C46.1568 40.4398 46.2339 40.5078 46.2861 40.5956C46.3391 40.6834 46.3655 40.7869 46.3655 40.9062C46.3655 41.0255 46.3391 41.1307 46.2861 41.2219C46.2339 41.313 46.1568 41.3844 46.0549 41.436C45.9537 41.4876 45.8294 41.5134 45.682 41.5134H44.9099V39.4546H45.1592V41.2963H45.682C45.7758 41.2963 45.8552 41.2775 45.9202 41.24C45.9859 41.2018 46.0355 41.1529 46.069 41.0932C46.1032 41.0329 46.1203 40.9692 46.1203 40.9022C46.1203 40.8037 46.0824 40.7189 46.0067 40.6479C45.9309 40.5762 45.8227 40.5403 45.682 40.5403H45.0949V40.3192ZM46.8159 39.4546V41.5134H46.5666V39.4546H46.8159Z" fill="#30373B"/>
<path d="M47.4356 39.4546L47.9664 40.3111H47.9825L48.5133 39.4546H48.8068L48.1594 40.484L48.8068 41.5134H48.5133L47.9825 40.673H47.9664L47.4356 41.5134H47.1421L47.8056 40.484L47.1421 39.4546H47.4356Z" fill="#30373B"/>
<path d="M49.8148 39.6758V39.4546H51.3589V39.6758H50.7115V41.5134H50.4622V39.6758H49.8148Z" fill="#30373B"/>
<path d="M51.7437 41.5134V39.4546H52.9862V39.6758H51.993V40.3714H52.9218V40.5926H51.993V41.2922H53.0023V41.5134H51.7437Z" fill="#30373B"/>
<path d="M53.5562 39.4546L54.0869 40.3111H54.103L54.6338 39.4546H54.9273L54.2799 40.484L54.9273 41.5134H54.6338L54.103 40.673H54.0869L53.5562 41.5134H53.2626L53.9261 40.484L53.2626 39.4546H53.5562Z" fill="#30373B"/>
<path d="M55.2518 41.5134V39.4546H55.5011V40.3714H56.5988V39.4546H56.8481V41.5134H56.5988V40.5926H55.5011V41.5134H55.2518Z" fill="#30373B"/>
<path d="M59.0843 40.484C59.0843 40.7012 59.0451 40.8888 58.9667 41.047C58.8883 41.2051 58.7807 41.3271 58.644 41.4129C58.5073 41.4987 58.3512 41.5416 58.1756 41.5416C58 41.5416 57.8438 41.4987 57.7071 41.4129C57.5704 41.3271 57.4628 41.2051 57.3844 41.047C57.306 40.8888 57.2668 40.7012 57.2668 40.484C57.2668 40.2669 57.306 40.0792 57.3844 39.9211C57.4628 39.7629 57.5704 39.6409 57.7071 39.5552C57.8438 39.4694 58 39.4265 58.1756 39.4265C58.3512 39.4265 58.5073 39.4694 58.644 39.5552C58.7807 39.6409 58.8883 39.7629 58.9667 39.9211C59.0451 40.0792 59.0843 40.2669 59.0843 40.484ZM58.8431 40.484C58.8431 40.3058 58.8132 40.1553 58.7536 40.0327C58.6946 39.91 58.6145 39.8172 58.5133 39.7542C58.4128 39.6912 58.3002 39.6597 58.1756 39.6597C58.0509 39.6597 57.938 39.6912 57.8368 39.7542C57.7363 39.8172 57.6562 39.91 57.5965 40.0327C57.5376 40.1553 57.5081 40.3058 57.5081 40.484C57.5081 40.6623 57.5376 40.8127 57.5965 40.9354C57.6562 41.058 57.7363 41.1508 57.8368 41.2138C57.938 41.2768 58.0509 41.3083 58.1756 41.3083C58.3002 41.3083 58.4128 41.2768 58.5133 41.2138C58.6145 41.1508 58.6946 41.058 58.7536 40.9354C58.8132 40.8127 58.8431 40.6623 58.8431 40.484Z" fill="#30373B"/>
<path d="M59.3266 41.5134V41.2842H59.3869C59.4727 41.2842 59.5394 41.2567 59.587 41.2018C59.6345 41.1468 59.6687 41.058 59.6895 40.9354C59.7109 40.8127 59.7254 40.6502 59.7327 40.4478L59.7689 39.4546H61.0235V41.5134H60.7742V39.6758H60.0062L59.974 40.4961C59.9659 40.7119 59.9462 40.8955 59.9147 41.047C59.8832 41.1984 59.8279 41.314 59.7488 41.3938C59.6697 41.4735 59.5545 41.5134 59.403 41.5134H59.3266Z" fill="#30373B"/>
<path d="M63.2587 40.484C63.2587 40.7012 63.2195 40.8888 63.1411 41.047C63.0626 41.2051 62.9551 41.3271 62.8184 41.4129C62.6817 41.4987 62.5255 41.5416 62.3499 41.5416C62.1743 41.5416 62.0182 41.4987 61.8815 41.4129C61.7448 41.3271 61.6372 41.2051 61.5588 41.047C61.4804 40.8888 61.4412 40.7012 61.4412 40.484C61.4412 40.2669 61.4804 40.0792 61.5588 39.9211C61.6372 39.7629 61.7448 39.6409 61.8815 39.5552C62.0182 39.4694 62.1743 39.4265 62.3499 39.4265C62.5255 39.4265 62.6817 39.4694 62.8184 39.5552C62.9551 39.6409 63.0626 39.7629 63.1411 39.9211C63.2195 40.0792 63.2587 40.2669 63.2587 40.484ZM63.0174 40.484C63.0174 40.3058 62.9876 40.1553 62.9279 40.0327C62.869 39.91 62.7889 39.8172 62.6877 39.7542C62.5872 39.6912 62.4746 39.6597 62.3499 39.6597C62.2253 39.6597 62.1123 39.6912 62.0111 39.7542C61.9106 39.8172 61.8305 39.91 61.7709 40.0327C61.7119 40.1553 61.6824 40.3058 61.6824 40.484C61.6824 40.6623 61.7119 40.8127 61.7709 40.9354C61.8305 41.058 61.9106 41.1508 62.0111 41.2138C62.1123 41.2768 62.2253 41.3083 62.3499 41.3083C62.4746 41.3083 62.5872 41.2768 62.6877 41.2138C62.7889 41.1508 62.869 41.058 62.9279 40.9354C62.9876 40.8127 63.0174 40.6623 63.0174 40.484Z" fill="#30373B"/>
<path d="M64.9204 39.4546V39.6758H63.9272V41.5134H63.6779V39.4546H64.9204Z" fill="#30373B"/>
<path d="M65.3061 39.4546H65.5514V41.0751H65.5715L66.6974 39.4546H66.9387V41.5134H66.6894V39.8969H66.6693L65.5474 41.5134H65.3061V39.4546Z" fill="#30373B"/>
<path d="M67.4375 39.4546H67.6828V41.0751H67.7029L68.8288 39.4546H69.0701V41.5134H68.8208V39.8969H68.8007L67.6788 41.5134H67.4375V39.4546ZM68.4508 38.9399H68.672C68.672 39.0485 68.6345 39.1373 68.5594 39.2063C68.4843 39.2754 68.3825 39.3099 68.2538 39.3099C68.1271 39.3099 68.0263 39.2754 67.9512 39.2063C67.8768 39.1373 67.8396 39.0485 67.8396 38.9399H68.0608C68.0608 38.9922 68.0752 39.0381 68.104 39.0777C68.1335 39.1172 68.1834 39.137 68.2538 39.137C68.3242 39.137 68.3744 39.1172 68.4046 39.0777C68.4354 39.0381 68.4508 38.9922 68.4508 38.9399Z" fill="#30373B"/>
<path d="M70.2525 39.6758V39.4546H71.7966V39.6758H71.1492V41.5134H70.8999V39.6758H70.2525Z" fill="#30373B"/>
<path d="M72.1813 41.5134V39.4546H72.877C73.0385 39.4546 73.1705 39.4838 73.2731 39.5421C73.3763 39.5997 73.4527 39.6778 73.5023 39.7763C73.5518 39.8748 73.5766 39.9847 73.5766 40.106C73.5766 40.2273 73.5518 40.3376 73.5023 40.4368C73.4533 40.536 73.3776 40.615 73.2751 40.674C73.1725 40.7323 73.0412 40.7615 72.881 40.7615H72.3824V40.5403H72.873C72.9835 40.5403 73.0723 40.5212 73.1394 40.483C73.2064 40.4448 73.255 40.3932 73.2851 40.3282C73.3159 40.2625 73.3314 40.1885 73.3314 40.106C73.3314 40.0236 73.3159 39.9499 73.2851 39.8849C73.255 39.8199 73.206 39.7689 73.1384 39.7321C73.0707 39.6946 72.9809 39.6758 72.8689 39.6758H72.4306V41.5134H72.1813Z" fill="#30373B"/>
<path d="M73.8526 41.5134H73.5912L74.3472 39.4546H74.6045L75.3605 41.5134H75.0991L74.4839 39.7803H74.4678L73.8526 41.5134ZM73.9491 40.7092H75.0026V40.9304H73.9491V40.7092Z" fill="#30373B"/>
<path d="M75.6811 41.5134V39.4546H75.9305V40.3714H77.0282V39.4546H77.2775V41.5134H77.0282V40.5926H75.9305V41.5134H75.6811Z" fill="#30373B"/>
<path d="M79.4333 40.098H79.184C79.1692 40.0263 79.1434 39.9633 79.1066 39.909C79.0704 39.8547 79.0261 39.8092 78.9739 39.7723C78.9223 39.7348 78.865 39.7066 78.802 39.6879C78.739 39.6691 78.6733 39.6597 78.6049 39.6597C78.4803 39.6597 78.3674 39.6912 78.2662 39.7542C78.1656 39.8172 78.0856 39.91 78.0259 40.0327C77.9669 40.1553 77.9375 40.3058 77.9375 40.484C77.9375 40.6623 77.9669 40.8127 78.0259 40.9354C78.0856 41.058 78.1656 41.1508 78.2662 41.2138C78.3674 41.2768 78.4803 41.3083 78.6049 41.3083C78.6733 41.3083 78.739 41.2989 78.802 41.2802C78.865 41.2614 78.9223 41.2336 78.9739 41.1967C79.0261 41.1592 79.0704 41.1133 79.1066 41.059C79.1434 41.0041 79.1692 40.9411 79.184 40.87H79.4333C79.4145 40.9753 79.3803 41.0694 79.3307 41.1525C79.2812 41.2356 79.2195 41.3063 79.1458 41.3646C79.0721 41.4223 78.9893 41.4662 78.8975 41.4963C78.8063 41.5265 78.7088 41.5416 78.6049 41.5416C78.4294 41.5416 78.2732 41.4987 78.1365 41.4129C77.9998 41.3271 77.8922 41.2051 77.8138 41.047C77.7354 40.8888 77.6962 40.7012 77.6962 40.484C77.6962 40.2669 77.7354 40.0792 77.8138 39.9211C77.8922 39.7629 77.9998 39.6409 78.1365 39.5552C78.2732 39.4694 78.4294 39.4265 78.6049 39.4265C78.7088 39.4265 78.8063 39.4416 78.8975 39.4717C78.9893 39.5019 79.0721 39.5461 79.1458 39.6044C79.2195 39.6621 79.2812 39.7324 79.3307 39.8155C79.3803 39.898 79.4145 39.9921 79.4333 40.098Z" fill="#30373B"/>
<path d="M81.3762 39.4546V41.5134H81.1269V39.6758H80.0895V41.5134H79.8402V39.4546H81.3762Z" fill="#30373B"/>
<path d="M83.6162 40.484C83.6162 40.7012 83.577 40.8888 83.4985 41.047C83.4201 41.2051 83.3126 41.3271 83.1759 41.4129C83.0391 41.4987 82.883 41.5416 82.7074 41.5416C82.5318 41.5416 82.3757 41.4987 82.239 41.4129C82.1022 41.3271 81.9947 41.2051 81.9163 41.047C81.8379 40.8888 81.7987 40.7012 81.7987 40.484C81.7987 40.2669 81.8379 40.0792 81.9163 39.9211C81.9947 39.7629 82.1022 39.6409 82.239 39.5552C82.3757 39.4694 82.5318 39.4265 82.7074 39.4265C82.883 39.4265 83.0391 39.4694 83.1759 39.5552C83.3126 39.6409 83.4201 39.7629 83.4985 39.9211C83.577 40.0792 83.6162 40.2669 83.6162 40.484ZM83.3749 40.484C83.3749 40.3058 83.3451 40.1553 83.2854 40.0327C83.2265 39.91 83.1464 39.8172 83.0452 39.7542C82.9446 39.6912 82.8321 39.6597 82.7074 39.6597C82.5828 39.6597 82.4698 39.6912 82.3686 39.7542C82.2681 39.8172 82.188 39.91 82.1284 40.0327C82.0694 40.1553 82.0399 40.3058 82.0399 40.484C82.0399 40.6623 82.0694 40.8127 82.1284 40.9354C82.188 41.058 82.2681 41.1508 82.3686 41.2138C82.4698 41.2768 82.5828 41.3083 82.7074 41.3083C82.8321 41.3083 82.9446 41.2768 83.0452 41.2138C83.1464 41.1508 83.2265 41.058 83.2854 40.9354C83.3451 40.8127 83.3749 40.6623 83.3749 40.484Z" fill="#30373B"/>
<path d="M84.0354 41.5134V39.4546H84.731C84.8925 39.4546 85.0245 39.4838 85.1271 39.5421C85.2303 39.5997 85.3067 39.6778 85.3563 39.7763C85.4059 39.8748 85.4307 39.9847 85.4307 40.106C85.4307 40.2273 85.4059 40.3376 85.3563 40.4368C85.3073 40.536 85.2316 40.615 85.1291 40.674C85.0265 40.7323 84.8952 40.7615 84.735 40.7615H84.2364V40.5403H84.727C84.8375 40.5403 84.9263 40.5212 84.9934 40.483C85.0604 40.4448 85.109 40.3932 85.1391 40.3282C85.17 40.2625 85.1854 40.1885 85.1854 40.106C85.1854 40.0236 85.17 39.9499 85.1391 39.8849C85.109 39.8199 85.06 39.7689 84.9924 39.7321C84.9247 39.6946 84.8349 39.6758 84.7229 39.6758H84.2847V41.5134H84.0354Z" fill="#30373B"/>
<path d="M85.7197 39.6758V39.4546H87.2637V39.6758H86.6164V41.5134H86.3671V39.6758H85.7197Z" fill="#30373B"/>
<path d="M87.4924 41.5134H87.2311L87.987 39.4546H88.2444L89.0003 41.5134H88.739L88.1237 39.7803H88.1077L87.4924 41.5134ZM87.5889 40.7092H88.6425V40.9304H87.5889V40.7092Z" fill="#30373B"/>
</g>
</g>
</g>
</g>
<defs>
<linearGradient id="paint0_linear_1001_1748" x1="-6.34483" y1="16.6566" x2="23.0428" y2="23.3069" gradientUnits="userSpaceOnUse">
<stop offset="1.82162e-07" stop-color="#37A6DE"/>
<stop offset="1" stop-color="#1C71B7"/>
</linearGradient>
<linearGradient id="paint1_linear_1001_1748" x1="0.918284" y1="35.953" x2="13.8063" y2="3.05472" gradientUnits="userSpaceOnUse">
<stop stop-color="#DF1F26"/>
<stop offset="0.1123" stop-color="#D9242C"/>
<stop offset="0.2681" stop-color="#C9313E"/>
<stop offset="0.4494" stop-color="#AE465C"/>
<stop offset="0.6498" stop-color="#886585"/>
<stop offset="0.8634" stop-color="#598BB9"/>
<stop offset="1" stop-color="#37A6DE"/>
</linearGradient>
<linearGradient id="paint2_linear_1001_1748" x1="15.5489" y1="-1.62343" x2="8.65474" y2="28.2711" gradientUnits="userSpaceOnUse">
<stop stop-color="#37A6DE"/>
<stop offset="0.3865" stop-color="#2179BA"/>
<stop offset="0.5158" stop-color="#2076B5"/>
<stop offset="0.6582" stop-color="#1F6CA8"/>
<stop offset="0.8067" stop-color="#1C5C92"/>
<stop offset="0.9587" stop-color="#174574"/>
<stop offset="1" stop-color="#163E6A"/>
</linearGradient>
<linearGradient id="paint3_linear_1001_1748" x1="13.2788" y1="1.43684" x2="7.19323" y2="27.8252" gradientUnits="userSpaceOnUse">
<stop stop-color="#2179BA"/>
<stop offset="1" stop-color="#163E6A"/>
</linearGradient>
</defs>
</svg>
