<svg width="192" height="33" viewBox="0 0 192 33" fill="none" xmlns="http://www.w3.org/2000/svg">
<g id="Group 3">
<g id="Group 2">
<path id="Vector 1" d="M10.3292 29.0412L0 5.64673L22.8435 18.1862L10.3292 29.0412Z" fill="url(#paint0_linear_1001_1659)"/>
<path id="Vector 3" d="M4.66802 25.2977H0L8.54148 3.02612H13.3088L4.66802 25.2977Z" fill="url(#paint1_linear_1001_1659)"/>
<path id="Vector 2" d="M8.34868 22.7716H3.68066L12.2221 0.5H16.9895L8.34868 22.7716Z" fill="#004788" fill-opacity="0.79"/>
</g>
<g id="&#208;&#152;&#208;&#189;&#209;&#130;&#208;&#181;&#208;&#187;&#208;&#187;&#208;&#181;&#208;&#186;&#209;&#130;&#209;&#131;&#208;&#176;&#208;&#187;&#209;&#140;&#208;&#189;&#209;&#139;&#208;&#181; &#209;&#130;&#209;&#128;&#208;&#176;&#208;&#189;&#209;&#129;&#208;&#191;&#208;&#190;&#209;&#128;&#209;&#130;&#208;&#189;&#209;&#139;&#208;&#181; &#209;&#129;&#208;&#184;&#209;&#129;&#209;&#130;&#208;&#181;&#208;&#188;&#209;&#139;">
<path d="M37.5041 13.9195H35.8388V5.9477L30.92 13.9195H29.4089V2.94092H31.0742V10.8973L35.9776 2.94092H37.5041V13.9195Z" fill="#323232"/>
<path d="M46.4464 13.9195H44.8736V10.5889H41.7589V13.9195H40.1861V6.10189H41.7589V9.21661H44.8736V6.10189H46.4464V13.9195Z" fill="#323232"/>
<path d="M54.2405 7.47422H51.8505V13.9195H50.2777V7.47422H47.7952V6.10189H54.2405V7.47422Z" fill="#323232"/>
<path d="M61.8951 10.4656H56.8221C56.8221 11.1543 56.9917 11.694 57.331 12.0846C57.6805 12.465 58.1739 12.6551 58.8112 12.6551C59.2327 12.6551 59.5822 12.5935 59.8598 12.4701C60.1373 12.3467 60.42 12.1411 60.7078 11.8533L61.7101 12.7939C61.2886 13.2154 60.8569 13.5238 60.4148 13.7191C59.9831 13.9144 59.4383 14.012 58.7804 14.012C57.7113 14.012 56.8581 13.6934 56.2208 13.056C55.5834 12.4187 55.2648 11.401 55.2648 10.003C55.2648 8.74889 55.5629 7.77232 56.1591 7.07331C56.7553 6.36402 57.5623 6.00937 58.5799 6.00937C59.6182 6.00937 60.4303 6.35374 61.0162 7.04247C61.6021 7.73121 61.8951 8.65123 61.8951 9.80254V10.4656ZM60.3377 9.3708C60.3069 8.90822 60.235 8.55357 60.1219 8.30686C59.8238 7.64897 59.3098 7.32002 58.5799 7.32002C57.8398 7.32002 57.3207 7.64897 57.0226 8.30686C56.8992 8.57413 56.8324 8.92878 56.8221 9.3708H60.3377Z" fill="#323232"/>
<path d="M69.7363 13.9195H68.1636V7.47422H65.8969V9.74086C65.8969 10.553 65.8404 11.2365 65.7273 11.7916C65.6142 12.3467 65.4446 12.7785 65.2185 13.0869C64.9923 13.385 64.7302 13.6009 64.4321 13.7345C64.1442 13.8578 63.7999 13.9195 63.399 13.9195H62.6588V12.5318H62.9056C63.07 12.5318 63.2088 12.5215 63.3219 12.5009C63.435 12.4701 63.5634 12.3981 63.7074 12.2851C63.8616 12.1617 63.9798 11.9972 64.062 11.7916C64.1545 11.5758 64.2316 11.2622 64.2933 10.8511C64.355 10.4296 64.3858 9.93104 64.3858 9.35538V6.10189H69.7363V13.9195Z" fill="#323232"/>
<path d="M78.3043 13.9195H76.7315V7.47422H74.4649V9.74086C74.4649 10.553 74.4084 11.2365 74.2953 11.7916C74.1822 12.3467 74.0126 12.7785 73.7864 13.0869C73.5603 13.385 73.2982 13.6009 73.0001 13.7345C72.7122 13.8578 72.3679 13.9195 71.967 13.9195H71.2268V12.5318H71.4735C71.638 12.5318 71.7768 12.5215 71.8899 12.5009C72.0029 12.4701 72.1314 12.3981 72.2753 12.2851C72.4295 12.1617 72.5478 11.9972 72.63 11.7916C72.7225 11.5758 72.7996 11.2622 72.8613 10.8511C72.923 10.4296 72.9538 9.93104 72.9538 9.35538V6.10189H78.3043V13.9195Z" fill="#323232"/>
<path d="M87.0419 10.4656H81.9689C81.9689 11.1543 82.1386 11.694 82.4778 12.0846C82.8273 12.465 83.3207 12.6551 83.958 12.6551C84.3795 12.6551 84.729 12.5935 85.0066 12.4701C85.2841 12.3467 85.5668 12.1411 85.8546 11.8533L86.8569 12.7939C86.4354 13.2154 86.0037 13.5238 85.5617 13.7191C85.1299 13.9144 84.5851 14.012 83.9272 14.012C82.8581 14.012 82.0049 13.6934 81.3676 13.056C80.7303 12.4187 80.4116 11.401 80.4116 10.003C80.4116 8.74889 80.7097 7.77232 81.3059 7.07331C81.9021 6.36402 82.7091 6.00937 83.7268 6.00937C84.765 6.00937 85.5771 6.35374 86.163 7.04247C86.749 7.73121 87.0419 8.65123 87.0419 9.80254V10.4656ZM85.4846 9.3708C85.4537 8.90822 85.3818 8.55357 85.2687 8.30686C84.9706 7.64897 84.4566 7.32002 83.7268 7.32002C82.9866 7.32002 82.4675 7.64897 82.1694 8.30686C82.046 8.57413 81.9792 8.92878 81.9689 9.3708H85.4846Z" fill="#323232"/>
<path d="M90.7435 13.9195H89.1553V6.10189H90.7435V13.9195ZM95.8473 13.9195H93.9199L90.759 9.8488L93.7349 6.10189H95.6161L92.5013 9.7717L95.8473 13.9195Z" fill="#323232"/>
<path d="M102.456 7.47422H100.066V13.9195H98.4933V7.47422H96.0108V6.10189H102.456V7.47422Z" fill="#323232"/>
<path d="M110.254 6.10189L106.8 15.4769C106.43 16.5048 105.705 17.0188 104.626 17.0188H103.993V15.6002H104.394C104.723 15.6002 104.965 15.5437 105.119 15.4306C105.273 15.3278 105.407 15.1119 105.52 14.783L105.952 13.5495L103.207 6.10189H104.888L106.754 11.622L108.573 6.10189H110.254Z" fill="#323232"/>
<path d="M117.207 13.9195H115.665V13.2102C115.377 13.4981 115.074 13.7036 114.755 13.827C114.447 13.9504 114.056 14.012 113.583 14.012C112.658 14.012 111.959 13.7756 111.486 13.3027C111.075 12.871 110.87 12.3108 110.87 11.622C110.87 10.9436 111.101 10.3988 111.563 9.98758C112.036 9.57639 112.71 9.3708 113.583 9.3708H115.634V8.8157C115.634 8.312 115.5 7.94194 115.233 7.70551C114.966 7.46908 114.529 7.35086 113.923 7.35086C113.511 7.35086 113.177 7.41254 112.92 7.53589C112.674 7.64897 112.437 7.84428 112.211 8.12183L111.193 7.15041C111.553 6.72895 111.939 6.43598 112.35 6.2715C112.771 6.09675 113.316 6.00937 113.984 6.00937C116.133 6.00937 117.207 6.9037 117.207 8.69235V13.9195ZM115.634 11.0978V10.4656H113.83C112.874 10.4656 112.396 10.8408 112.396 11.5912C112.396 12.3313 112.889 12.7014 113.876 12.7014C114.503 12.7014 114.976 12.5523 115.295 12.2542C115.521 12.0384 115.634 11.6529 115.634 11.0978Z" fill="#323232"/>
<path d="M125.692 13.9195H124.119V7.47422H121.852V9.74086C121.852 10.553 121.796 11.2365 121.683 11.7916C121.57 12.3467 121.4 12.7785 121.174 13.0869C120.948 13.385 120.686 13.6009 120.387 13.7345C120.1 13.8578 119.755 13.9195 119.354 13.9195H118.614V12.5318H118.861C119.025 12.5318 119.164 12.5215 119.277 12.5009C119.39 12.4701 119.519 12.3981 119.663 12.2851C119.817 12.1617 119.935 11.9972 120.017 11.7916C120.11 11.5758 120.187 11.2622 120.249 10.8511C120.31 10.4296 120.341 9.93104 120.341 9.35538V6.10189H125.692V13.9195Z" fill="#323232"/>
<path d="M133.658 9.72545C134.131 10.1675 134.368 10.7534 134.368 11.4833C134.368 12.2131 134.131 12.8042 133.658 13.2565C133.196 13.6985 132.589 13.9195 131.839 13.9195H128.2V6.10189H129.773V9.04699H131.839C132.589 9.04699 133.196 9.27314 133.658 9.72545ZM132.487 12.3313C132.702 12.1257 132.81 11.843 132.81 11.4833C132.81 11.1235 132.702 10.8459 132.487 10.6506C132.271 10.445 131.967 10.3422 131.577 10.3422H129.773V12.6397H131.577C131.967 12.6397 132.271 12.5369 132.487 12.3313Z" fill="#323232"/>
<path d="M142.441 13.9195H140.868V10.5889H137.753V13.9195H136.181V6.10189H137.753V9.21661H140.868V6.10189H142.441V13.9195Z" fill="#323232"/>
<path d="M153.764 13.9195H152.191V6.10189H153.764V13.9195ZM150.403 9.72545C150.876 10.1777 151.112 10.7637 151.112 11.4833C151.112 12.2028 150.876 12.7888 150.403 13.2411C149.94 13.6934 149.329 13.9195 148.568 13.9195H144.944V6.10189H146.517V9.04699H148.568C149.329 9.04699 149.94 9.27314 150.403 9.72545ZM149.216 12.3313C149.442 12.1257 149.555 11.843 149.555 11.4833C149.555 11.1235 149.442 10.8459 149.216 10.6506C149 10.445 148.696 10.3422 148.306 10.3422H146.517V12.6397H148.306C148.696 12.6397 149 12.5369 149.216 12.3313Z" fill="#323232"/>
<path d="M162.603 10.4656H157.53C157.53 11.1543 157.699 11.694 158.039 12.0846C158.388 12.465 158.882 12.6551 159.519 12.6551C159.94 12.6551 160.29 12.5935 160.567 12.4701C160.845 12.3467 161.128 12.1411 161.416 11.8533L162.418 12.7939C161.996 13.2154 161.565 13.5238 161.123 13.7191C160.691 13.9144 160.146 14.012 159.488 14.012C158.419 14.012 157.566 13.6934 156.928 13.056C156.291 12.4187 155.972 11.401 155.972 10.003C155.972 8.74889 156.271 7.77232 156.867 7.07331C157.463 6.36402 158.27 6.00937 159.288 6.00937C160.326 6.00937 161.138 6.35374 161.724 7.04247C162.31 7.73121 162.603 8.65123 162.603 9.80254V10.4656ZM161.045 9.3708C161.015 8.90822 160.943 8.55357 160.83 8.30686C160.531 7.64897 160.017 7.32002 159.288 7.32002C158.548 7.32002 158.028 7.64897 157.73 8.30686C157.607 8.57413 157.54 8.92878 157.53 9.3708H161.045Z" fill="#323232"/>
<path d="M34.5898 22.8936H32.1998V29.3389H30.627V22.8936H28.1445V21.5213H34.5898V22.8936Z" fill="#323232"/>
<path d="M42.4141 25.4224C42.4141 27.0363 42.1211 28.1413 41.5352 28.7375C41.0726 29.2001 40.4404 29.4314 39.6386 29.4314C38.7648 29.4314 38.0812 29.1333 37.5878 28.5371V32.4999H36.015V21.5213H37.557V22.3539C38.0709 21.7371 38.7597 21.4288 39.6232 21.4288C40.4352 21.4288 41.0726 21.66 41.5352 22.1226C42.1211 22.7188 42.4141 23.8188 42.4141 25.4224ZM40.7796 26.4246C40.8207 26.1471 40.8413 25.813 40.8413 25.4224C40.8413 25.0317 40.8207 24.6977 40.7796 24.4201C40.7488 24.1426 40.6768 23.8753 40.5637 23.6183C40.4609 23.3613 40.2965 23.166 40.0703 23.0324C39.8442 22.8987 39.5615 22.8319 39.2223 22.8319C38.8728 22.8319 38.5849 22.8987 38.3588 23.0324C38.1326 23.166 37.963 23.3613 37.8499 23.6183C37.7471 23.8753 37.6752 24.1426 37.6341 24.4201C37.6032 24.6977 37.5878 25.0317 37.5878 25.4224C37.5878 25.813 37.6032 26.1471 37.6341 26.4246C37.6752 26.7022 37.7471 26.9746 37.8499 27.2419C37.963 27.4988 38.1326 27.6942 38.3588 27.8278C38.5952 27.9614 38.883 28.0282 39.2223 28.0282C39.5615 28.0282 39.8442 27.9614 40.0703 27.8278C40.2965 27.6942 40.4609 27.4988 40.5637 27.2419C40.6768 26.9746 40.7488 26.7022 40.7796 26.4246Z" fill="#323232"/>
<path d="M50.2893 29.3389H48.7473V28.6296C48.4595 28.9174 48.1563 29.123 47.8376 29.2464C47.5292 29.3697 47.1386 29.4314 46.6657 29.4314C45.7406 29.4314 45.0415 29.195 44.5687 28.7221C44.1575 28.2904 43.9519 27.7301 43.9519 27.0414C43.9519 26.363 44.1832 25.8181 44.6458 25.407C45.1186 24.9958 45.792 24.7902 46.6657 24.7902H48.7165V24.2351C48.7165 23.7314 48.5829 23.3613 48.3156 23.1249C48.0483 22.8885 47.6114 22.7702 47.0049 22.7702C46.5938 22.7702 46.2597 22.8319 46.0027 22.9553C45.756 23.0683 45.5195 23.2637 45.2934 23.5412L44.2757 22.5698C44.6355 22.1483 45.021 21.8554 45.4322 21.6909C45.8536 21.5161 46.3984 21.4288 47.0666 21.4288C49.215 21.4288 50.2893 22.3231 50.2893 24.1117V29.3389ZM48.7165 26.5171V25.885H46.9124C45.9564 25.885 45.4784 26.2602 45.4784 27.0106C45.4784 27.7507 45.9718 28.1208 46.9587 28.1208C47.5857 28.1208 48.0586 27.9717 48.3773 27.6736C48.6034 27.4577 48.7165 27.0722 48.7165 26.5171Z" fill="#323232"/>
<path d="M58.9746 29.3389H57.4018V26.0083H54.2871V29.3389H52.7143V21.5213H54.2871V24.636H57.4018V21.5213H58.9746V29.3389Z" fill="#323232"/>
<path d="M67.137 28.3212C66.438 29.0613 65.5796 29.4314 64.5619 29.4314C64.0993 29.4314 63.6676 29.3595 63.2667 29.2155C62.8658 29.0613 62.4957 28.8352 62.1565 28.5371C61.8276 28.2287 61.5654 27.8124 61.3701 27.2881C61.1748 26.7536 61.0772 26.1317 61.0772 25.4224C61.0772 24.7131 61.1748 24.0963 61.3701 23.572C61.5654 23.0375 61.8276 22.6212 62.1565 22.3231C62.4957 22.0147 62.8658 21.7885 63.2667 21.6446C63.6676 21.5007 64.0993 21.4288 64.5619 21.4288C65.5899 21.4288 66.4482 21.7937 67.137 22.5235L66.0576 23.572C65.8109 23.3048 65.5745 23.1146 65.3483 23.0015C65.1325 22.8885 64.8703 22.8319 64.5619 22.8319C63.9452 22.8319 63.462 23.0632 63.1125 23.5258C62.8041 23.9164 62.6499 24.5486 62.6499 25.4224C62.6499 26.3064 62.8041 26.9438 63.1125 27.3344C63.462 27.797 63.9452 28.0282 64.5619 28.0282C64.8703 28.0282 65.1325 27.9717 65.3483 27.8586C65.5745 27.7456 65.8109 27.5554 66.0576 27.2881L67.137 28.3212Z" fill="#323232"/>
<path d="M75.2221 29.3389H73.6494V22.8936H70.5346V29.3389H68.9619V21.5213H75.2221V29.3389Z" fill="#323232"/>
<path d="M83.8026 25.4224C83.8026 26.1419 83.7358 26.7433 83.6022 27.2264C83.4686 27.7096 83.227 28.1362 82.8775 28.5062C82.2813 29.123 81.5 29.4314 80.5337 29.4314C79.5777 29.4314 78.8016 29.123 78.2054 28.5062C77.8559 28.1362 77.6143 27.7096 77.4807 27.2264C77.3471 26.7433 77.2803 26.1419 77.2803 25.4224C77.2803 24.7131 77.3471 24.1169 77.4807 23.6337C77.6143 23.1403 77.8559 22.7137 78.2054 22.3539C78.8016 21.7371 79.5777 21.4288 80.5337 21.4288C81.5 21.4288 82.2813 21.7371 82.8775 22.3539C83.227 22.7137 83.4686 23.1403 83.6022 23.6337C83.7358 24.1169 83.8026 24.7131 83.8026 25.4224ZM81.6902 27.5657C82.05 27.2059 82.2299 26.4914 82.2299 25.4224C82.2299 24.3533 82.05 23.6389 81.6902 23.2791C81.3921 22.981 81.0066 22.8319 80.5337 22.8319C80.0712 22.8319 79.6908 22.981 79.3927 23.2791C79.0329 23.6389 78.853 24.3533 78.853 25.4224C78.853 26.4914 79.0329 27.2059 79.3927 27.5657C79.7011 27.8741 80.0814 28.0282 80.5337 28.0282C80.9963 28.0282 81.3818 27.8741 81.6902 27.5657Z" fill="#323232"/>
<path d="M92.3312 25.4224C92.3312 27.0363 92.0383 28.1413 91.4523 28.7375C90.9897 29.2001 90.3576 29.4314 89.5558 29.4314C88.682 29.4314 87.9984 29.1333 87.505 28.5371V32.4999H85.9322V21.5213H87.4741V22.3539C87.9881 21.7371 88.6769 21.4288 89.5403 21.4288C90.3524 21.4288 90.9897 21.66 91.4523 22.1226C92.0383 22.7188 92.3312 23.8188 92.3312 25.4224ZM90.6968 26.4246C90.7379 26.1471 90.7585 25.813 90.7585 25.4224C90.7585 25.0317 90.7379 24.6977 90.6968 24.4201C90.666 24.1426 90.594 23.8753 90.4809 23.6183C90.3781 23.3613 90.2136 23.166 89.9875 23.0324C89.7613 22.8987 89.4787 22.8319 89.1394 22.8319C88.7899 22.8319 88.5021 22.8987 88.276 23.0324C88.0498 23.166 87.8802 23.3613 87.7671 23.6183C87.6643 23.8753 87.5924 24.1426 87.5512 24.4201C87.5204 24.6977 87.505 25.0317 87.505 25.4224C87.505 25.813 87.5204 26.1471 87.5512 26.4246C87.5924 26.7022 87.6643 26.9746 87.7671 27.2419C87.8802 27.4988 88.0498 27.6942 88.276 27.8278C88.5124 27.9614 88.8002 28.0282 89.1394 28.0282C89.4787 28.0282 89.7613 27.9614 89.9875 27.8278C90.2136 27.6942 90.3781 27.4988 90.4809 27.2419C90.594 26.9746 90.666 26.7022 90.6968 26.4246Z" fill="#323232"/>
<path d="M99.7457 22.8936H97.3557V29.3389H95.7829V22.8936H93.3004V21.5213H99.7457V22.8936Z" fill="#323232"/>
<path d="M107.431 29.3389H105.858V26.0083H102.744V29.3389H101.171V21.5213H102.744V24.636H105.858V21.5213H107.431V29.3389Z" fill="#323232"/>
<path d="M118.754 29.3389H117.182V21.5213H118.754V29.3389ZM115.393 25.1448C115.866 25.5971 116.102 26.1831 116.102 26.9026C116.102 27.6222 115.866 28.2081 115.393 28.6604C114.93 29.1127 114.319 29.3389 113.558 29.3389H109.935V21.5213H111.507V24.4664H113.558C114.319 24.4664 114.93 24.6925 115.393 25.1448ZM114.206 27.7507C114.432 27.5451 114.545 27.2624 114.545 26.9026C114.545 26.5428 114.432 26.2653 114.206 26.07C113.99 25.8644 113.687 25.7616 113.296 25.7616H111.507V28.0591H113.296C113.687 28.0591 113.99 27.9563 114.206 27.7507Z" fill="#323232"/>
<path d="M127.593 25.885H122.52C122.52 26.5737 122.69 27.1134 123.029 27.504C123.378 27.8843 123.872 28.0745 124.509 28.0745C124.931 28.0745 125.28 28.0128 125.558 27.8895C125.835 27.7661 126.118 27.5605 126.406 27.2727L127.408 28.2133C126.987 28.6347 126.555 28.9431 126.113 29.1384C125.681 29.3338 125.136 29.4314 124.478 29.4314C123.409 29.4314 122.556 29.1127 121.919 28.4754C121.281 27.8381 120.963 26.8204 120.963 25.4224C120.963 24.1683 121.261 23.1917 121.857 22.4927C122.453 21.7834 123.26 21.4288 124.278 21.4288C125.316 21.4288 126.128 21.7731 126.714 22.4619C127.3 23.1506 127.593 24.0706 127.593 25.2219V25.885ZM126.036 24.7902C126.005 24.3276 125.933 23.973 125.82 23.7262C125.522 23.0683 125.008 22.7394 124.278 22.7394C123.538 22.7394 123.019 23.0683 122.721 23.7262C122.597 23.9935 122.53 24.3482 122.52 24.7902H126.036Z" fill="#323232"/>
<path d="M139.039 28.3212C138.34 29.0613 137.481 29.4314 136.464 29.4314C136.001 29.4314 135.569 29.3595 135.169 29.2155C134.768 29.0613 134.398 28.8352 134.058 28.5371C133.729 28.2287 133.467 27.8124 133.272 27.2881C133.077 26.7536 132.979 26.1317 132.979 25.4224C132.979 24.7131 133.077 24.0963 133.272 23.572C133.467 23.0375 133.729 22.6212 134.058 22.3231C134.398 22.0147 134.768 21.7885 135.169 21.6446C135.569 21.5007 136.001 21.4288 136.464 21.4288C137.492 21.4288 138.35 21.7937 139.039 22.5235L137.959 23.572C137.713 23.3048 137.476 23.1146 137.25 23.0015C137.034 22.8885 136.772 22.8319 136.464 22.8319C135.847 22.8319 135.364 23.0632 135.014 23.5258C134.706 23.9164 134.552 24.5486 134.552 25.4224C134.552 26.3064 134.706 26.9438 135.014 27.3344C135.364 27.797 135.847 28.0282 136.464 28.0282C136.772 28.0282 137.034 27.9717 137.25 27.8586C137.476 27.7456 137.713 27.5554 137.959 27.2881L139.039 28.3212Z" fill="#323232"/>
<path d="M147.355 29.3389H145.782V23.9575L142.436 29.3389H140.864V21.5213H142.436V26.8255L145.782 21.5213H147.355V29.3389Z" fill="#323232"/>
<path d="M155.512 28.3212C154.813 29.0613 153.955 29.4314 152.937 29.4314C152.475 29.4314 152.043 29.3595 151.642 29.2155C151.241 29.0613 150.871 28.8352 150.532 28.5371C150.203 28.2287 149.941 27.8124 149.745 27.2881C149.55 26.7536 149.452 26.1317 149.452 25.4224C149.452 24.7131 149.55 24.0963 149.745 23.572C149.941 23.0375 150.203 22.6212 150.532 22.3231C150.871 22.0147 151.241 21.7885 151.642 21.6446C152.043 21.5007 152.475 21.4288 152.937 21.4288C153.965 21.4288 154.823 21.7937 155.512 22.5235L154.433 23.572C154.186 23.3048 153.95 23.1146 153.724 23.0015C153.508 22.8885 153.246 22.8319 152.937 22.8319C152.32 22.8319 151.837 23.0632 151.488 23.5258C151.179 23.9164 151.025 24.5486 151.025 25.4224C151.025 26.3064 151.179 26.9438 151.488 27.3344C151.837 27.797 152.32 28.0282 152.937 28.0282C153.246 28.0282 153.508 27.9717 153.724 27.8586C153.95 27.7456 154.186 27.5554 154.433 27.2881L155.512 28.3212Z" fill="#323232"/>
<path d="M162.778 22.8936H160.388V29.3389H158.816V22.8936H156.333V21.5213H162.778V22.8936Z" fill="#323232"/>
<path d="M170.433 25.885H165.36C165.36 26.5737 165.53 27.1134 165.869 27.504C166.218 27.8843 166.712 28.0745 167.349 28.0745C167.771 28.0745 168.12 28.0128 168.398 27.8895C168.675 27.7661 168.958 27.5605 169.246 27.2727L170.248 28.2133C169.826 28.6347 169.395 28.9431 168.953 29.1384C168.521 29.3338 167.976 29.4314 167.318 29.4314C166.249 29.4314 165.396 29.1127 164.759 28.4754C164.121 27.8381 163.803 26.8204 163.803 25.4224C163.803 24.1683 164.101 23.1917 164.697 22.4927C165.293 21.7834 166.1 21.4288 167.118 21.4288C168.156 21.4288 168.968 21.7731 169.554 22.4619C170.14 23.1506 170.433 24.0706 170.433 25.2219V25.885ZM168.876 24.7902C168.845 24.3276 168.773 23.973 168.66 23.7262C168.362 23.0683 167.848 22.7394 167.118 22.7394C166.378 22.7394 165.859 23.0683 165.56 23.7262C165.437 23.9935 165.37 24.3482 165.36 24.7902H168.876Z" fill="#323232"/>
<path d="M180.287 29.3389H178.714V24.3276L176.91 27.9049H175.923L174.088 24.3276V29.3389H172.516V21.5213H174.073L176.417 26.1779L178.745 21.5213H180.287V29.3389Z" fill="#323232"/>
<path d="M191.62 29.3389H190.047V21.5213H191.62V29.3389ZM188.259 25.1448C188.731 25.5971 188.968 26.1831 188.968 26.9026C188.968 27.6222 188.731 28.2081 188.259 28.6604C187.796 29.1127 187.184 29.3389 186.424 29.3389H182.8V21.5213H184.373V24.4664H186.424C187.184 24.4664 187.796 24.6925 188.259 25.1448ZM187.071 27.7507C187.297 27.5451 187.411 27.2624 187.411 26.9026C187.411 26.5428 187.297 26.2653 187.071 26.07C186.855 25.8644 186.552 25.7616 186.162 25.7616H184.373V28.0591H186.162C186.552 28.0591 186.855 27.9563 187.071 27.7507Z" fill="#323232"/>
</g>
</g>
<defs>
<linearGradient id="paint0_linear_1001_1659" x1="19.8639" y1="8.92196" x2="6.13994" y2="20.5748" gradientUnits="userSpaceOnUse">
<stop stop-color="#4F93BD"/>
<stop offset="1" stop-color="#68B9E0"/>
</linearGradient>
<linearGradient id="paint1_linear_1001_1659" x1="11.2231" y1="1.24814" x2="2.20513" y2="28.2562" gradientUnits="userSpaceOnUse">
<stop stop-color="#7EE5FF"/>
<stop offset="0.262518" stop-color="#FFC3F7"/>
<stop offset="0.656597" stop-color="#FF6566"/>
</linearGradient>
</defs>
</svg>
