<svg width="131" height="40" viewBox="0 0 131 40" fill="none" xmlns="http://www.w3.org/2000/svg">
<g id="Group">
<path id="Vector" d="M27.6595 31.4707V27.8023H25.6215V31.4707H25.3271V27.5305H27.9539V31.4707H27.6595Z" fill="#002B4F"/>
<path id="Vector_2" d="M30.8514 31.4697V29.0467H29.7645L29.7192 30.3601C29.6966 31.1979 29.3569 31.4697 28.8813 31.4697H28.7002V31.2206H28.8361C29.0852 31.2206 29.4022 31.13 29.4248 30.2469L29.4701 28.7976H31.1005V31.4697H30.8514Z" fill="#002B4F"/>
<path id="Vector_3" d="M33.7508 30.201H32.913C32.4601 30.201 32.2336 30.3821 32.2336 30.7444C32.2336 31.1067 32.4601 31.2653 32.9583 31.2653C33.5244 31.2653 33.7508 31.0615 33.7508 30.5633V30.201ZM33.7508 31.4691V31.1973L33.4338 31.4238C33.2979 31.4917 33.1394 31.4917 32.9356 31.4917C32.3016 31.4917 31.9619 31.2426 31.9619 30.7218C31.9619 30.2462 32.3016 29.9519 32.8903 29.9519H33.7508V29.6575C33.7508 29.2046 33.5017 29.0008 32.9809 29.0008L32.528 29.0914L32.2789 29.3405L32.0751 29.1593L32.4148 28.8649C32.5733 28.797 32.7545 28.7517 33.0036 28.7517C33.6829 28.7517 34.0452 29.0461 34.0452 29.6348V31.4464H33.7508V31.4691Z" fill="#002B4F"/>
<path id="Vector_4" d="M35.8607 29.0472V31.4701H35.5663V29.0472H34.6152V28.7981H36.7665V29.0472H35.8607Z" fill="#002B4F"/>
<path id="Vector_5" d="M38.6861 29.0246V31.2664C39.4333 31.2664 39.773 30.8135 39.773 30.1568C39.773 29.5454 39.5013 29.0246 38.6861 29.0246ZM38.4143 29.0246C37.5991 29.0246 37.3274 29.5454 37.3274 30.1341C37.3274 30.7908 37.6671 31.2437 38.4143 31.2437V29.0246ZM38.6861 31.4928V32.7383H38.4143V31.4928C37.5765 31.4928 37.0557 30.9946 37.0557 30.1341C37.0557 29.2737 37.5538 28.7755 38.4143 28.7755V27.53H38.6861V28.7755C39.5466 28.7755 40.0674 29.2737 40.0674 30.1341C40.0674 30.9946 39.5239 31.4928 38.6861 31.4928Z" fill="#002B4F"/>
<path id="Vector_6" d="M42.3952 29.2509C42.2594 29.1151 42.0556 29.0245 41.8518 29.0245C41.648 29.0245 41.4442 29.1151 41.3083 29.2509C41.1271 29.4321 41.0819 29.6812 41.0819 30.1341C41.0819 30.6096 41.1498 30.836 41.3083 31.0172C41.4442 31.1531 41.648 31.2436 41.8518 31.2436C42.0556 31.2436 42.2594 31.1531 42.3952 31.0172C42.5764 30.836 42.6443 30.587 42.6443 30.1341C42.6217 29.6585 42.5537 29.4321 42.3952 29.2509ZM42.5764 31.1984C42.3952 31.3795 42.1235 31.4927 41.8291 31.4927C41.5347 31.4927 41.2857 31.3795 41.0819 31.1984C40.8554 30.9719 40.7422 30.6322 40.7422 30.1341C40.7422 29.6132 40.8328 29.2962 41.0819 29.0698C41.263 28.8886 41.5347 28.7754 41.8291 28.7754C42.5085 28.7754 42.8934 29.2509 42.8934 30.1341C42.9161 30.6549 42.8028 30.9719 42.5764 31.1984Z" fill="#002B4F"/>
<path id="Vector_7" d="M44.8652 29.0241C44.3444 29.0241 44.1179 29.3638 44.1179 30.1337C44.1179 30.9036 44.3444 31.2433 44.8652 31.2433C45.386 31.2433 45.6125 30.9036 45.6125 30.1337C45.6125 29.3638 45.386 29.0241 44.8652 29.0241ZM44.8878 31.4924C44.4802 31.4924 44.2991 31.3791 44.1179 31.1074V32.7152H43.8462V28.775H44.1179V29.1147C44.3217 28.843 44.5029 28.7297 44.8878 28.7297C45.5672 28.7297 45.9068 29.1826 45.9068 30.0884C45.8842 31.0395 45.5445 31.4924 44.8878 31.4924Z" fill="#002B4F"/>
<path id="Vector_8" d="M49.0365 31.4699V29.3866L48.1987 31.0849H47.9496L47.0891 29.3866V31.4699H46.8174V28.7979H47.0891L48.0855 30.8132L49.0365 28.7979H49.3083V31.4699H49.0365Z" fill="#002B4F"/>
<path id="Vector_9" d="M51.9535 30.201H51.1156C50.6627 30.201 50.4363 30.3821 50.4363 30.7444C50.4363 31.1067 50.6627 31.2653 51.1609 31.2653C51.727 31.2653 51.9535 31.0615 51.9535 30.5633V30.201ZM51.9535 31.4691V31.1973L51.6364 31.4238C51.5006 31.4917 51.3421 31.4917 51.1383 31.4917C50.5042 31.4917 50.1646 31.2426 50.1646 30.7218C50.1646 30.2462 50.5042 29.9519 51.093 29.9519H51.9535V29.6575C51.9535 29.2046 51.7044 29.0008 51.1836 29.0008L50.7307 29.0914L50.4589 29.3405L50.2551 29.1593L50.5948 28.8649C50.7533 28.797 50.9345 28.7517 51.1836 28.7517C51.8629 28.7517 52.2252 29.0461 52.2252 29.6348V31.4464H51.9535V31.4691Z" fill="#002B4F"/>
<path id="Vector_10" d="M56.2513 30.2012H55.4135C54.9606 30.2012 54.7341 30.3824 54.7341 30.7447C54.7341 31.107 54.9606 31.2655 55.4588 31.2655C56.0249 31.2655 56.2287 31.0617 56.2287 30.5635V30.2012H56.2513ZM56.2513 31.4693V31.1976L55.9343 31.424C55.7984 31.4919 55.6399 31.4919 55.4361 31.4919C54.8021 31.4919 54.4624 31.2429 54.4624 30.722C54.4624 30.2465 54.8021 29.9521 55.3908 29.9521H56.2513V29.6577C56.2513 29.2048 56.0249 29.001 55.4814 29.001L55.0285 29.0916L54.7794 29.3407L54.5756 29.1596L54.9153 28.8652C55.0738 28.7972 55.255 28.752 55.5041 28.752C56.206 28.752 56.5457 29.0463 56.5457 29.6351V31.4467H56.2513V31.4693Z" fill="#002B4F"/>
<path id="Vector_11" d="M59.4048 31.4697L58.4538 30.0883L57.865 30.7677V31.4697H57.5933V28.7976H57.865V30.3601L59.2463 28.7976H59.6086L58.6576 29.8845L59.7671 31.4697H59.4048Z" fill="#002B4F"/>
<path id="Vector_12" d="M61.2386 29.0469V31.4699H60.9442V29.0469H59.9932V28.7979H62.1444V29.0469H61.2386Z" fill="#002B4F"/>
<path id="Vector_13" d="M63.2589 32.1948L63.0777 32.5118C62.9645 32.625 62.7833 32.6703 62.5795 32.6703H62.4437V32.4212H62.5569C62.8286 32.4212 62.9419 32.3533 63.0324 32.0589L63.2589 31.4701L62.2852 28.7981H62.6022L63.3947 31.1305L64.1873 28.7981H64.5043L63.2589 32.1948Z" fill="#002B4F"/>
<path id="Vector_14" d="M66.6744 30.201H65.8365C65.3836 30.201 65.1572 30.3821 65.1572 30.7444C65.1572 31.1067 65.3836 31.2653 65.8818 31.2653C66.4479 31.2653 66.6744 31.0615 66.6744 30.5633V30.201ZM66.6744 31.4691V31.1973L66.3573 31.4238C66.2215 31.4917 66.063 31.4917 65.8365 31.4917C65.2025 31.4917 64.8628 31.2426 64.8628 30.7218C64.8628 30.2462 65.2025 29.9519 65.7912 29.9519H66.6517V29.6575C66.6517 29.2046 66.4253 29.0008 65.8818 29.0008L65.4289 29.0914L65.1798 29.3405L64.976 29.1593L65.3157 28.8649C65.4742 28.797 65.6554 28.7517 65.9044 28.7517C66.5838 28.7517 66.9461 29.0461 66.9461 29.6348V31.4464H66.6744V31.4691Z" fill="#002B4F"/>
<path id="Vector_15" d="M69.7347 31.4701V29.0472H68.6478L68.6025 30.3606C68.5799 31.1984 68.2402 31.4701 67.7647 31.4701H67.5835V31.2211H67.7194C67.9685 31.2211 68.2855 31.1305 68.3081 30.2473L68.3534 28.7981H69.9838V31.4701H69.7347Z" fill="#002B4F"/>
<path id="Vector_16" d="M72.2021 30.1341H71.3642V31.2211H72.2021C72.587 31.2211 72.7908 31.0399 72.7908 30.6776C72.7908 30.3379 72.587 30.1341 72.2021 30.1341ZM72.2473 31.4701H71.0698V28.7981H71.3416V29.885H72.2247C72.7229 29.885 73.0399 30.2021 73.0399 30.6776C73.0399 31.1531 72.7455 31.4701 72.2473 31.4701Z" fill="#002B4F"/>
<path id="Vector_17" d="M75.5708 31.4697V30.2016H74.1215V31.4697H73.8271V28.7976H74.1215V29.9751H75.5708V28.7976H75.8425V31.4697H75.5708Z" fill="#002B4F"/>
<path id="Vector_18" d="M78.3819 29.2509C78.246 29.1151 78.0422 29.0245 77.8384 29.0245C77.6346 29.0245 77.4308 29.1151 77.2949 29.2509C77.1138 29.4321 77.0685 29.6812 77.0685 30.1341C77.0685 30.6096 77.1364 30.836 77.2949 31.0172C77.4308 31.1531 77.6346 31.2436 77.8384 31.2436C78.0422 31.2436 78.246 31.1531 78.3819 31.0172C78.563 30.836 78.631 30.587 78.631 30.1341C78.631 29.6585 78.563 29.4321 78.3819 29.2509ZM78.5857 31.1984C78.4045 31.3795 78.1328 31.4927 77.8384 31.4927C77.544 31.4927 77.2949 31.3795 77.0911 31.1984C76.8647 30.9719 76.7515 30.6322 76.7515 30.1341C76.7515 29.6132 76.842 29.2962 77.0911 29.0698C77.2723 28.8886 77.544 28.7754 77.8384 28.7754C78.5177 28.7754 78.9027 29.2509 78.9027 30.1341C78.9027 30.6549 78.8121 30.9719 78.5857 31.1984Z" fill="#002B4F"/>
<path id="Vector_19" d="M80.8717 28.276C80.3962 28.276 80.1018 28.0496 79.9886 27.5967H80.2603C80.3283 27.8458 80.5094 28.0269 80.8944 28.0269C81.2793 28.0269 81.4378 27.8458 81.5058 27.5967H81.7549C81.6416 28.0496 81.3473 28.276 80.8717 28.276ZM81.6416 31.4689V29.2497L80.1018 31.4689H79.8301V28.7968H80.1018V31.0386L81.6416 28.7968H81.9134V31.4689H81.6416Z" fill="#002B4F"/>
<path id="Vector_20" d="M86.1952 31.4697V29.2279L84.678 31.4697H84.4062V28.7976H84.678V31.0394L86.1952 28.7976H86.4895V31.4697H86.1952Z" fill="#002B4F"/>
<path id="Vector_21" d="M89.291 31.4697V30.2016H87.8417V31.4697H87.5474V28.7976H87.8417V29.9751H89.291V28.7976H89.5627V31.4697H89.291Z" fill="#002B4F"/>
<path id="Vector_22" d="M92.0822 29.0236V31.2654C92.8295 31.2654 93.1692 30.8125 93.1692 30.1558C93.1692 29.5444 92.9201 29.0236 92.0822 29.0236ZM91.8105 29.0236C90.9953 29.0236 90.7236 29.5444 90.7236 30.1332C90.7236 30.7899 91.0632 31.2428 91.8105 31.2428V29.0236ZM92.0822 31.4918V32.7373H91.8105V31.4918C90.9727 31.4918 90.4292 30.9937 90.4292 30.1332C90.4292 29.2727 90.9274 28.7745 91.8105 28.7745V27.5291H92.0822V28.7745C92.9427 28.7745 93.4636 29.2727 93.4636 30.1332C93.4636 30.9937 92.9201 31.4918 92.0822 31.4918Z" fill="#002B4F"/>
<path id="Vector_23" d="M95.7927 29.2512C95.6568 29.1153 95.453 29.0247 95.2492 29.0247C95.0454 29.0247 94.8416 29.1153 94.7058 29.2512C94.5246 29.4323 94.4793 29.6814 94.4793 30.1343C94.4793 30.6098 94.5472 30.8363 94.7058 31.0174C94.8416 31.1533 95.0454 31.2439 95.2492 31.2439C95.453 31.2439 95.6568 31.1533 95.7927 31.0174C95.9739 30.8363 96.0191 30.5872 96.0191 30.1343C96.0191 29.6588 95.9739 29.4323 95.7927 29.2512ZM95.9739 31.1986C95.7927 31.3798 95.521 31.493 95.2266 31.493C94.9322 31.493 94.6831 31.3798 94.4793 31.1986C94.2529 30.9722 94.1396 30.6325 94.1396 30.1343C94.1396 29.6135 94.2302 29.2965 94.4793 29.07C94.6605 28.8889 94.9322 28.7756 95.2266 28.7756C95.9059 28.7756 96.2909 29.2512 96.2909 30.1343C96.3135 30.6551 96.2003 30.9722 95.9739 31.1986Z" fill="#002B4F"/>
<path id="Vector_24" d="M98.2675 29.0241C97.7467 29.0241 97.5203 29.3638 97.5203 30.1337C97.5203 30.9036 97.7467 31.2433 98.2675 31.2433C98.7884 31.2433 99.0148 30.9036 99.0148 30.1337C99.0148 29.3638 98.7884 29.0241 98.2675 29.0241ZM98.2902 31.4924C97.8826 31.4924 97.7014 31.3791 97.5203 31.1074V32.7152H97.2485V28.775H97.5203V29.1147C97.7241 28.843 97.9052 28.7297 98.2902 28.7297C98.9695 28.7297 99.3092 29.1826 99.3092 30.0884C99.2865 31.0395 98.9695 31.4924 98.2902 31.4924Z" fill="#002B4F"/>
<path id="Vector_25" d="M102.433 31.4701V29.3869L101.595 31.0852H101.346L100.486 29.3869V31.4701H100.214V28.7981H100.486L101.482 30.8135L102.433 28.7981H102.727V31.4701H102.433Z" fill="#002B4F"/>
<path id="Vector_26" d="M105.354 30.201H104.516C104.064 30.201 103.837 30.3821 103.837 30.7444C103.837 31.1067 104.064 31.2653 104.562 31.2653C105.128 31.2653 105.354 31.0615 105.354 30.5633V30.201ZM105.354 31.4691V31.1973L105.037 31.4238C104.901 31.4917 104.743 31.4917 104.539 31.4917C103.905 31.4917 103.565 31.2426 103.565 30.7218C103.565 30.2462 103.905 29.9519 104.494 29.9519H105.354V29.6575C105.354 29.2046 105.105 29.0008 104.584 29.0008L104.132 29.0914L103.882 29.3405L103.679 29.1593L104.018 28.8649C104.177 28.797 104.358 28.7517 104.607 28.7517C105.286 28.7517 105.649 29.0461 105.649 29.6348V31.4464H105.354V31.4691Z" fill="#002B4F"/>
<path id="Vector_27" d="M108.837 32.353V31.4699H106.686V28.7979H106.957V31.2208H108.407V28.7979H108.701V31.2208H109.109V32.353H108.837Z" fill="#002B4F"/>
<path id="Vector_28" d="M111.643 31.4694V29.2276L110.125 31.4694H109.831V28.7974H110.125V31.0392L111.643 28.7974H111.937V31.4694H111.643Z" fill="#002B4F"/>
<path id="Vector_29" d="M114.819 31.4699V29.2281L113.279 31.4699H113.007V28.7979H113.279V31.0397L114.819 28.7979H115.113V31.4699H114.819Z" fill="#002B4F"/>
<path id="Vector_30" d="M26.7105 35.8635C26.5746 35.7277 26.3708 35.6371 26.167 35.6371C25.9632 35.6371 25.7594 35.7277 25.6235 35.8635C25.4424 36.0447 25.3745 36.2938 25.3745 36.7467C25.3745 37.1996 25.4424 37.4486 25.6235 37.6298C25.7594 37.7657 25.9632 37.8562 26.167 37.8562C26.3708 37.8562 26.5746 37.7657 26.7105 37.6298C26.8916 37.4486 26.9369 37.1996 26.9369 36.7467C26.9596 36.2938 26.8916 36.0447 26.7105 35.8635ZM26.9143 37.8336C26.7331 38.0148 26.4614 38.128 26.167 38.128C25.8726 38.128 25.6235 38.0148 25.4197 37.8336C25.1933 37.6072 25.0801 37.2675 25.0801 36.7693C25.0801 36.2485 25.1707 35.9315 25.4197 35.705C25.6009 35.5239 25.8726 35.4106 26.167 35.4106C26.8464 35.4106 27.2313 35.8862 27.2313 36.7693C27.2313 37.2675 27.1407 37.6072 26.9143 37.8336Z" fill="#002B4F"/>
<path id="Vector_31" d="M31.7108 38.9652V38.082H29.5596V35.4326H29.8313V37.8556H31.2806V35.4326H31.5749V37.8556H31.9825V38.9652H31.7108Z" fill="#002B4F"/>
<path id="Vector_32" d="M34.5401 38.0823V35.8631L33.0003 38.0823H32.7285V35.4329H33.0003V37.652L34.5401 35.4329H34.8118V38.0823H34.5401Z" fill="#002B4F"/>
<path id="Vector_33" d="M37.3218 35.6357V37.8549C38.0691 37.8549 38.4087 37.402 38.4087 36.7453C38.4087 36.1565 38.137 35.6357 37.3218 35.6357ZM37.0501 35.6357C36.2349 35.6357 35.9631 36.1565 35.9631 36.7453C35.9631 37.402 36.3028 37.8549 37.0501 37.8549V35.6357ZM37.3218 38.1266V39.3721H37.0501V38.1266C36.2122 38.1266 35.6914 37.6284 35.6914 36.7679C35.6914 35.9074 36.1896 35.4093 37.0501 35.4093V34.1638H37.3218V35.4093C38.1823 35.4093 38.6805 35.9074 38.6805 36.7679C38.7031 37.6284 38.1597 38.1266 37.3218 38.1266Z" fill="#002B4F"/>
<path id="Vector_34" d="M40.6071 35.6353C40.0863 35.6353 39.8598 35.9749 39.8598 36.7448C39.8598 37.5148 40.0863 37.8544 40.6071 37.8544C41.1279 37.8544 41.3543 37.5148 41.3543 36.7448C41.3543 35.9976 41.1279 35.6353 40.6071 35.6353ZM40.6071 38.1262C40.1995 38.1262 40.0183 38.0129 39.8372 37.7412V39.349H39.5654V35.4088H39.8372V35.7485C40.041 35.4768 40.2221 35.3635 40.6071 35.3635C41.2864 35.3635 41.6261 35.8164 41.6261 36.7222C41.6261 37.6733 41.2864 38.1262 40.6071 38.1262Z" fill="#002B4F"/>
<path id="Vector_35" d="M44.0078 35.8635L43.4644 35.6371C43.2606 35.6371 43.0568 35.7277 42.9209 35.8635C42.7398 36.0447 42.6718 36.2938 42.6718 36.7467C42.6718 37.1996 42.7398 37.4486 42.9209 37.6298C43.0568 37.7657 43.2606 37.8562 43.4644 37.8562L44.0078 37.6298C44.189 37.4486 44.2569 37.1996 44.2569 36.7467C44.2569 36.2938 44.189 36.0447 44.0078 35.8635ZM44.2116 37.8336C44.0305 38.0148 43.7588 38.128 43.4644 38.128C43.17 38.128 42.9209 38.0148 42.7171 37.8336C42.4907 37.6072 42.3774 37.2675 42.3774 36.7693C42.3774 36.2485 42.468 35.9315 42.7171 35.705C42.8983 35.5239 43.17 35.4106 43.4644 35.4106C44.1437 35.4106 44.5287 35.8862 44.5287 36.7693C44.5287 37.2675 44.4381 37.6072 44.2116 37.8336Z" fill="#002B4F"/>
<path id="Vector_36" d="M46.6352 36.8372H45.7521V37.8563H46.6352C46.9975 37.8563 47.2013 37.6525 47.2013 37.3581C47.2013 37.041 46.9749 36.8372 46.6352 36.8372ZM46.5899 35.6597H45.7294V36.5882H46.5899C46.9522 36.5882 47.1334 36.407 47.1334 36.1126C47.156 35.8409 46.9522 35.6597 46.5899 35.6597ZM46.6805 38.0827H45.4351V35.4106H46.6352C47.0881 35.4106 47.4051 35.6824 47.4051 36.09C47.4051 36.3844 47.224 36.5882 46.9522 36.6787C47.2466 36.7693 47.4504 36.9958 47.4504 37.3354C47.4731 37.811 47.1787 38.0827 46.6805 38.0827Z" fill="#002B4F"/>
<path id="Vector_37" d="M50.8465 38.0825V35.4104H51.1182V38.0825H50.8465ZM49.5331 36.7691H48.6953V37.856H49.5331C49.9181 37.856 50.1219 37.6522 50.1219 37.3125C50.1219 36.9729 49.9181 36.7691 49.5331 36.7691ZM49.5784 38.0825H48.4009V35.4104H48.6726V36.4973H49.5557C50.0539 36.4973 50.371 36.8144 50.371 37.2899C50.3936 37.7881 50.0766 38.0825 49.5784 38.0825Z" fill="#002B4F"/>
<path id="Vector_38" d="M53.7233 38.0815L53.0213 36.972L52.3193 38.0815H51.957L52.8628 36.7229L52.0023 35.4321H52.342L53.0213 36.4964L53.678 35.4321H54.0177L53.1572 36.7229L54.063 38.0815H53.7233Z" fill="#002B4F"/>
<path id="Vector_39" d="M56.9715 35.6583V38.0813H56.6998V35.6583H55.7261V35.4319H57.8773V35.6583H56.9715Z" fill="#002B4F"/>
<path id="Vector_40" d="M60.0404 36.2014C59.9272 35.8391 59.6554 35.6353 59.3158 35.6353C58.9987 35.6353 58.7496 35.8164 58.6364 36.0882C58.5685 36.224 58.5458 36.3372 58.5458 36.5863H60.1083C60.063 36.3825 60.063 36.3146 60.0404 36.2014ZM58.5232 36.8128C58.5458 37.1072 58.5458 37.2204 58.6138 37.3789C58.7496 37.6959 58.9987 37.8544 59.3837 37.8544L59.7686 37.7865L60.131 37.5374L60.3348 37.6959L59.8819 38.0129L59.3837 38.1035C58.6364 38.1035 58.2515 37.628 58.2515 36.7222C58.2515 35.8843 58.6591 35.3635 59.3158 35.3635C59.9724 35.3635 60.38 35.8617 60.38 36.6543V36.7901H58.5232V36.8128Z" fill="#002B4F"/>
<path id="Vector_41" d="M62.6416 38.0818L61.9396 36.9722L61.2376 38.0818H60.8979L61.7811 36.7231L60.9206 35.4324H61.2603L61.9396 36.4967L62.6189 35.4324H62.9586L62.0981 36.7231L62.9812 38.0818H62.6416Z" fill="#002B4F"/>
<path id="Vector_42" d="M65.4695 38.0815V36.8361H64.0203V38.0815H63.7485V35.4321H64.0203V36.587H65.4695V35.4321H65.7639V38.0815H65.4695Z" fill="#002B4F"/>
<path id="Vector_43" d="M68.3059 35.8635C68.17 35.7277 67.9662 35.6371 67.7624 35.6371C67.5586 35.6371 67.3548 35.7277 67.2189 35.8635C67.0378 36.0447 66.9699 36.2938 66.9699 36.7467C66.9699 37.1996 67.0378 37.4486 67.2189 37.6298C67.3548 37.7657 67.5586 37.8562 67.7624 37.8562C67.9662 37.8562 68.17 37.7657 68.3059 37.6298C68.487 37.4486 68.5323 37.1996 68.5323 36.7467C68.5323 36.2938 68.487 36.0447 68.3059 35.8635ZM68.487 37.8336C68.3059 38.0148 68.0341 38.128 67.7398 38.128C67.4454 38.128 67.1963 38.0148 66.9925 37.8336C66.7661 37.6072 66.6528 37.2675 66.6528 36.7693C66.6528 36.2485 66.7434 35.9315 66.9925 35.705C67.1737 35.5239 67.4454 35.4106 67.7398 35.4106C68.4191 35.4106 68.8041 35.8862 68.8041 36.7693C68.8267 37.2675 68.7135 37.6072 68.487 37.8336Z" fill="#002B4F"/>
<path id="Vector_44" d="M71.4001 38.0818V35.6588H70.3358L70.2905 36.9722C70.2678 37.81 69.9282 38.0818 69.4526 38.0818H69.2715V37.8553H69.4074C69.6564 37.8553 69.9735 37.7648 69.9961 36.8816L70.0414 35.4324H71.6718V38.1044H71.4001V38.0818Z" fill="#002B4F"/>
<path id="Vector_45" d="M74.2207 35.8633L73.6773 35.6368C73.4735 35.6368 73.2697 35.7274 73.1338 35.8633C72.9526 36.0444 72.8847 36.2935 72.8847 36.7464C72.8847 37.1993 72.9526 37.4484 73.1338 37.6296C73.2697 37.7654 73.4735 37.856 73.6773 37.856L74.2207 37.6296C74.3793 37.4484 74.4698 37.1993 74.4698 36.7464C74.4698 36.2935 74.4019 36.0444 74.2207 35.8633ZM74.4245 37.8334C74.2434 38.0145 73.9717 38.1277 73.6773 38.1277C73.3829 38.1277 73.1338 38.0145 72.93 37.8334C72.7036 37.6069 72.5903 37.2673 72.5903 36.7691C72.5903 36.2482 72.6809 35.9312 72.93 35.7048C73.1112 35.5236 73.3829 35.4104 73.6773 35.4104C74.3566 35.4104 74.7416 35.8859 74.7416 36.7691C74.7416 37.2673 74.651 37.6069 74.4245 37.8334Z" fill="#002B4F"/>
<path id="Vector_46" d="M75.9543 35.6583V38.0813H75.6826V35.4319H77.3357V35.6583H75.9543Z" fill="#002B4F"/>
<path id="Vector_47" d="M79.7422 38.0813V35.8621L78.2024 38.0813H77.9307V35.4319H78.2024V37.651L79.7422 35.4319H80.014V38.0813H79.7422Z" fill="#002B4F"/>
<path id="Vector_48" d="M82.5926 35.6597H81.7547C81.3698 35.6597 81.166 35.8635 81.166 36.2032C81.166 36.5655 81.3698 36.7467 81.7547 36.7467H82.5926V35.6597ZM82.5926 38.0827V36.9958H81.8453L81.2112 38.0827H80.8716L81.5283 36.9958C81.1207 36.9278 80.8716 36.6334 80.8716 36.2032C80.8716 35.7277 81.1886 35.4106 81.6868 35.4106H82.8643V38.0827H82.5926Z" fill="#002B4F"/>
<path id="Vector_49" d="M85.4064 38.0818L84.7044 36.9722L84.0024 38.0818H83.6401L84.5459 36.7231L83.6854 35.4324H84.0251L84.7044 36.4967L85.3611 35.4324H85.7008L84.8403 36.7231L85.7461 38.0818H85.4064Z" fill="#002B4F"/>
<path id="Vector_50" d="M89.637 38.0815V36.8361H88.1877V38.0815H87.916V35.4321H88.1877V36.587H89.637V35.4321H89.9314V38.0815H89.637Z" fill="#002B4F"/>
<path id="Vector_51" d="M92.5516 36.8128H91.7138C91.2609 36.8128 91.0344 36.9939 91.0344 37.3562C91.0344 37.7186 91.2609 37.8771 91.7591 37.8771C92.3252 37.8771 92.5516 37.6733 92.5516 37.1751V36.8128ZM92.5516 38.0809V37.8091L92.2346 38.0356C92.0987 38.0809 91.9402 38.1035 91.7364 38.1035C91.1024 38.1035 90.7627 37.8318 90.7627 37.3336C90.7627 36.8581 91.1024 36.5637 91.6911 36.5637H92.5516V36.2693C92.5516 35.8164 92.3252 35.6126 91.7817 35.6126L91.3288 35.7032L91.0797 35.9523L90.8759 35.7711L91.2156 35.4767C91.3741 35.4088 91.5552 35.3635 91.8043 35.3635C92.5063 35.3635 92.846 35.6579 92.846 36.2467V38.0582H92.5516V38.0809Z" fill="#002B4F"/>
<path id="Vector_52" d="M96.0451 35.6586V38.0815H95.7733V35.6586H94.8223V35.4321H96.9509V35.6586H96.0451Z" fill="#002B4F"/>
<path id="Vector_53" d="M98.5839 35.6353C98.0631 35.6353 97.8367 35.9749 97.8367 36.7448C97.8367 37.5148 98.0631 37.8544 98.5839 37.8544C99.1048 37.8544 99.3312 37.5148 99.3312 36.7448C99.3312 35.9976 99.1048 35.6353 98.5839 35.6353ZM98.6066 38.1262C98.199 38.1262 98.0178 38.0129 97.8367 37.7412V39.349H97.5649V35.4088H97.8367V35.7485C98.0405 35.4768 98.2216 35.3635 98.6066 35.3635C99.2859 35.3635 99.6256 35.8164 99.6256 36.7222C99.6256 37.6733 99.2859 38.1262 98.6066 38.1262Z" fill="#002B4F"/>
<path id="Vector_54" d="M102.098 36.813H101.26C100.807 36.813 100.58 36.9942 100.58 37.3565C100.58 37.7188 100.807 37.8773 101.305 37.8773C101.871 37.8773 102.098 37.6735 102.098 37.1753V36.813ZM102.098 38.0811V37.8094L101.78 38.0358C101.645 38.0811 101.486 38.1038 101.282 38.1038C100.648 38.1038 100.309 37.832 100.309 37.3338C100.309 36.8583 100.648 36.5639 101.237 36.5639H102.098V36.2696C102.098 35.8167 101.871 35.6129 101.328 35.6129L100.875 35.7034L100.626 35.9525L100.422 35.7714L100.761 35.477C100.92 35.4091 101.101 35.3638 101.35 35.3638C102.03 35.3638 102.392 35.6582 102.392 36.2469V38.0585H102.098V38.0811Z" fill="#002B4F"/>
<path id="Vector_55" d="M105.147 38.0815V36.8361H103.698V38.0815H103.426V35.4321H103.698V36.587H105.147V35.4321H105.441V38.0815H105.147Z" fill="#002B4F"/>
<path id="Vector_56" d="M107.545 38.128C106.798 38.128 106.368 37.6072 106.368 36.7693C106.368 35.9088 106.821 35.4106 107.545 35.4106C107.953 35.4106 108.134 35.5465 108.406 35.8182L108.202 35.9994C107.998 35.773 107.84 35.6597 107.523 35.6597C107.206 35.6597 106.956 35.773 106.798 36.022C106.662 36.2032 106.617 36.4296 106.617 36.792C106.617 37.1543 106.662 37.3581 106.798 37.5392C106.956 37.7657 107.206 37.9015 107.5 37.9015C107.794 37.9015 107.975 37.7883 108.179 37.5619L108.383 37.743C108.134 37.9921 107.93 38.128 107.545 38.128Z" fill="#002B4F"/>
<path id="Vector_57" d="M110.971 38.0813V35.6583H109.521V38.0813H109.227V35.4319H111.242V38.0813H110.971Z" fill="#002B4F"/>
<path id="Vector_58" d="M113.773 35.8635L113.23 35.6371C113.026 35.6371 112.822 35.7277 112.686 35.8635C112.505 36.0447 112.437 36.2938 112.437 36.7467C112.437 37.1996 112.505 37.4486 112.686 37.6298C112.822 37.7657 113.026 37.8562 113.23 37.8562L113.773 37.6298C113.954 37.4486 114.022 37.1996 114.022 36.7467C114.022 36.2938 113.954 36.0447 113.773 35.8635ZM113.977 37.8336C113.796 38.0148 113.524 38.128 113.23 38.128C112.935 38.128 112.686 38.0148 112.482 37.8336C112.256 37.6072 112.143 37.2675 112.143 36.7693C112.143 36.2485 112.233 35.9315 112.482 35.705C112.663 35.5239 112.935 35.4106 113.23 35.4106C113.909 35.4106 114.294 35.8862 114.294 36.7693C114.294 37.2675 114.203 37.6072 113.977 37.8336Z" fill="#002B4F"/>
<path id="Vector_59" d="M116.24 35.6348C115.719 35.6348 115.493 35.9744 115.493 36.7444C115.493 37.5143 115.719 37.8539 116.24 37.8539C116.761 37.8539 116.987 37.5143 116.987 36.7444C117.01 35.9971 116.784 35.6348 116.24 35.6348ZM116.263 38.1257C115.855 38.1257 115.674 38.0124 115.493 37.7407V39.3485H115.221V35.4083H115.493V35.748C115.697 35.4763 115.878 35.363 116.263 35.363C116.942 35.363 117.282 35.8159 117.282 36.7217C117.282 37.6728 116.942 38.1257 116.263 38.1257Z" fill="#002B4F"/>
<path id="Vector_60" d="M118.871 35.6586V38.0815H118.577V35.6586H117.625V35.4321H119.777V35.6586H118.871Z" fill="#002B4F"/>
<path id="Vector_61" d="M121.903 36.2011C121.79 35.8388 121.518 35.635 121.179 35.635C120.862 35.635 120.612 35.8162 120.499 36.0879C120.431 36.2238 120.409 36.337 120.409 36.5861H121.971C121.948 36.3823 121.948 36.3144 121.903 36.2011ZM120.386 36.8125C120.409 37.1069 120.409 37.2201 120.477 37.3786C120.612 37.6957 120.884 37.8542 121.246 37.8542L121.631 37.7862L121.994 37.5372L122.198 37.6957L121.745 38.0127L121.246 38.1033C120.499 38.1033 120.114 37.6277 120.114 36.722C120.114 35.8841 120.522 35.3633 121.179 35.3633C121.835 35.3633 122.243 35.8615 122.243 36.654V36.7899H120.386V36.8125Z" fill="#002B4F"/>
<path id="Vector_62" d="M34.6529 19.8081V8.3273L27.9728 19.8081H25.9121V4.0022H28.1766V15.4603L34.8567 4.0022H36.94V19.8081H34.6529Z" fill="#002B4F"/>
<path id="Vector_63" d="M45.4522 6.15343V19.8081H43.1877V6.15343H39.0664V4.0022H49.5735V6.15343H45.4522Z" fill="#002B4F"/>
<path id="Vector_64" d="M58.408 19.4911C57.7513 19.7854 57.0494 19.9439 56.2115 19.9439C54.6264 19.9439 53.2677 19.3778 52.2487 18.2682C50.7542 16.6831 50.7995 14.5319 50.7995 11.9278V11.2937C50.7995 8.39524 51.0033 6.92334 52.2487 5.58732C53.2677 4.50038 54.649 3.91162 56.1889 3.91162C57.0494 3.91162 57.774 4.07013 58.408 4.36451C59.11 4.68153 59.5855 5.04385 60.3328 5.79112L58.8156 7.42152C57.9325 6.51574 57.2758 6.0855 56.1662 6.0855C55.2831 6.0855 54.5132 6.42516 53.9471 7.03656C53.0866 8.01028 53.0639 9.70862 53.0639 11.7466V12.4486C53.0639 15.1433 53.2224 16.0944 53.9471 16.8869C54.5132 17.521 55.2604 17.838 56.1662 17.838C57.2758 17.838 57.9325 17.4078 58.8156 16.502L60.3328 18.1324C59.5855 18.8117 59.11 19.174 58.408 19.4911Z" fill="#002B4F"/>
<path id="Vector_65" d="M73.0573 6.15343H69.7965V11.4296H73.0573C74.6877 11.4296 75.7294 10.4106 75.7294 8.78019C75.7294 7.14979 74.6877 6.15343 73.0573 6.15343ZM73.2158 13.5808H69.8191V19.7854H67.5547V4.0022H73.2158C76.0464 4.0022 77.9938 5.94963 77.9938 8.80284C77.9938 11.6334 76.0464 13.5808 73.2158 13.5808Z" fill="#002B4F"/>
<path id="Vector_66" d="M85.6024 11.1804C85.2175 10.7275 84.674 10.4557 83.972 10.4557C83.27 10.4557 82.7039 10.7501 82.3416 11.203C81.8208 11.8823 81.6849 12.924 81.6849 14.26C81.6849 15.7545 81.8887 16.6377 82.3869 17.2038C82.7719 17.6793 83.3153 17.9058 83.972 17.9058C84.6966 17.9058 85.2628 17.6114 85.6251 17.1585C86.1232 16.5245 86.2818 15.5055 86.2818 14.2147C86.2818 12.8108 86.1685 11.8144 85.6024 11.1804ZM87.1649 18.6078C86.3723 19.4683 85.2628 19.9438 83.972 19.9438C82.6813 19.9438 81.5943 19.4683 80.8018 18.6078C79.896 17.6114 79.5337 16.3886 79.5337 14.1694C79.5337 11.9729 79.896 10.7501 80.8018 9.75375C81.5943 8.89326 82.6813 8.41772 83.972 8.41772C85.2628 8.41772 86.3723 8.89326 87.1649 9.75375C88.048 10.7275 88.4103 11.9729 88.4103 14.1241C88.4103 16.3886 88.0707 17.6114 87.1649 18.6078Z" fill="#002B4F"/>
<path id="Vector_67" d="M97.0188 19.5588C96.4527 19.8306 95.8413 19.9438 95.1167 19.9438C92.105 19.9438 90.3613 17.7926 90.3613 14.1241C90.3613 10.569 92.1502 8.41772 95.1167 8.41772C95.8413 8.41772 96.4753 8.55359 97.0188 8.80268C97.5849 9.07442 97.9246 9.30086 98.6039 10.0255L97.1547 11.52C96.5206 10.8633 96.0451 10.4557 95.094 10.4557C93.373 10.4557 92.4899 11.7465 92.4899 14.1921C92.4899 16.683 93.373 17.9511 95.094 17.9511C96.0677 17.9511 96.498 17.5435 97.1547 16.8641L98.6039 18.3813C97.9246 19.038 97.5849 19.2871 97.0188 19.5588Z" fill="#002B4F"/>
<path id="Vector_68" d="M106.37 19.5588C105.804 19.8306 105.193 19.9438 104.468 19.9438C101.456 19.9438 99.6899 17.7926 99.6899 14.1241C99.6899 10.569 101.479 8.41772 104.468 8.41772C105.193 8.41772 105.827 8.55359 106.37 8.80268C106.936 9.07442 107.276 9.30086 107.955 10.0255L106.506 11.52C105.872 10.8633 105.396 10.4557 104.445 10.4557C102.724 10.4557 101.841 11.7465 101.841 14.1921C101.841 16.683 102.724 17.9511 104.445 17.9511C105.419 17.9511 105.849 17.5435 106.506 16.8641L107.955 18.3813C107.276 19.038 106.936 19.2871 106.37 19.5588Z" fill="#002B4F"/>
<path id="Vector_69" d="M116.693 19.8078V12.0634L112.118 19.8078H109.99V8.55347H112.118V16.1847L116.693 8.55347H118.821V19.8078H116.693Z" fill="#002B4F"/>
<path id="Vector_70" d="M128.492 19.8078V12.0634L123.918 19.8078H121.789V8.55347H123.918V16.1847L128.492 8.55347H130.62V19.8078H128.492Z" fill="#002B4F"/>
<g id="Group_2">
<path id="Vector_71" d="M18.3961 14.6673L10.1761 9.97987L13.4822 0.627686H10.2667L9.63264 2.4166H7.66257L5.851 7.53426L0.620117 4.54519L4.0168 12.6746L1.23152 20.4869H4.46969L5.10373 18.7207H6.53034L8.50041 23.4307L18.3961 14.6673Z" fill="white"/>
<g id="Group_3">
<g id="Group_4">
<path id="Vector_72" d="M0.620117 4.59058L18.3961 14.8291L8.50041 23.6932L0.620117 4.59058Z" fill="url(#paint0_linear_1001_1666)"/>
<g id="Group_5">
<path id="Vector_73" d="M7.6664 2.4375L1.23535 20.7156H4.47352L10.8819 2.4375H7.6664Z" fill="url(#paint1_linear_1001_1666)"/>
<path id="Vector_74" d="M10.2629 0.627686L3.85449 18.9286H7.07001L13.4784 0.627686H10.2629Z" fill="url(#paint2_linear_1001_1666)"/>
<path id="Vector_75" d="M3.85449 18.9287H5.09994L10.8743 2.43726H9.62885L3.85449 18.9287Z" fill="url(#paint3_linear_1001_1666)"/>
</g>
</g>
<path id="Vector_76" opacity="0.43" d="M0.620117 4.59058L18.3961 14.8291L8.50041 23.6932L0.620117 4.59058Z" fill="#C6C5C4"/>
</g>
</g>
</g>
<defs>
<linearGradient id="paint0_linear_1001_1666" x1="-4.21589" y1="12.0922" x2="16.1465" y2="16.7323" gradientUnits="userSpaceOnUse">
<stop offset="1.82162e-07" stop-color="#37A6DE"/>
<stop offset="1" stop-color="#1C71B7"/>
</linearGradient>
<linearGradient id="paint1_linear_1001_1666" x1="0.824671" y1="25.3798" x2="9.65344" y2="2.68582" gradientUnits="userSpaceOnUse">
<stop stop-color="#DF1F26"/>
<stop offset="0.1123" stop-color="#D9242C"/>
<stop offset="0.2681" stop-color="#C9313E"/>
<stop offset="0.4494" stop-color="#AE465C"/>
<stop offset="0.6498" stop-color="#886585"/>
<stop offset="0.8634" stop-color="#598BB9"/>
<stop offset="1" stop-color="#37A6DE"/>
</linearGradient>
<linearGradient id="paint2_linear_1001_1666" x1="10.9595" y1="-0.49417" x2="6.24211" y2="20.1042" gradientUnits="userSpaceOnUse">
<stop stop-color="#37A6DE"/>
<stop offset="0.3865" stop-color="#2179BA"/>
<stop offset="0.5158" stop-color="#2076B5"/>
<stop offset="0.6582" stop-color="#1F6CA8"/>
<stop offset="0.8067" stop-color="#1C5C92"/>
<stop offset="0.9587" stop-color="#174574"/>
<stop offset="1" stop-color="#163E6A"/>
</linearGradient>
<linearGradient id="paint3_linear_1001_1666" x1="9.38549" y1="1.6133" x2="5.22137" y2="19.7958" gradientUnits="userSpaceOnUse">
<stop stop-color="#2179BA"/>
<stop offset="1" stop-color="#163E6A"/>
</linearGradient>
</defs>
</svg>
