<svg width="20" height="20" viewBox="0 0 20 20" fill="none" xmlns="http://www.w3.org/2000/svg">
<path id="Vector" d="M18.3081 9.10769H10.8928V1.69231C10.8928 1.45565 10.7988 1.22869 10.6314 1.06135C10.4641 0.894011 10.2371 0.8 10.0005 0.8C9.7638 0.8 9.53684 0.894011 9.3695 1.06135C9.20216 1.22869 9.10815 1.45565 9.10815 1.69231V9.10769H1.69276C1.45611 9.10769 1.22914 9.2017 1.0618 9.36904C0.895355 9.53549 0.801455 9.76093 0.800462 9.99623C0.796549 10.1135 0.817541 10.2303 0.862068 10.3388C0.907077 10.4486 0.97509 10.5474 1.06153 10.6287C1.14796 10.7099 1.2508 10.7717 1.36313 10.8098C1.47208 10.8468 1.5875 10.8608 1.70206 10.8508H9.10815V18.3077C9.10815 18.5443 9.20216 18.7713 9.3695 18.9387C9.53684 19.106 9.7638 19.2 10.0005 19.2C10.2371 19.2 10.4641 19.106 10.6314 18.9387C10.7988 18.7713 10.8928 18.5443 10.8928 18.3077V10.8923H18.3081C18.5448 10.8923 18.7718 10.7983 18.9391 10.631C19.1064 10.4636 19.2005 10.2367 19.2005 10C19.2005 9.76334 19.1064 9.53638 18.9391 9.36904C18.7718 9.2017 18.5448 9.10769 18.3081 9.10769Z" fill="#025098" stroke="#025098" stroke-width="0.4"/>
</svg>
