<svg width="12" height="25" viewBox="0 0 12 25" fill="none" xmlns="http://www.w3.org/2000/svg">
<path id="Vector" d="M11.5918 23.8033C11.4633 23.9506 11.3106 24.0675 11.1425 24.1473C10.9744 24.227 10.7942 24.2681 10.6122 24.2681C10.4302 24.2681 10.25 24.227 10.0819 24.1473C9.91384 24.0675 9.76116 23.9506 9.63263 23.8033L0.323703 13.1604C0.22109 13.0433 0.139681 12.9043 0.0841359 12.7512C0.0285906 12.5981 0 12.434 0 12.2682C0 12.1025 0.0285906 11.9384 0.0841359 11.7853C0.139681 11.6322 0.22109 11.4931 0.323703 11.3761L9.63263 0.73314C10.175 0.113042 11.0495 0.113042 11.5918 0.73314C12.1342 1.35324 12.1342 2.35299 11.5918 2.97309L3.46727 12.2619L11.6029 21.5634C12.1342 22.1835 12.1342 23.1832 11.5918 23.8033Z" fill="#025098"/>
</svg>
