<svg width="16" height="8" viewBox="0 0 16 8" fill="none" xmlns="http://www.w3.org/2000/svg">
<path id="Vector" d="M15.0591 0.272117C15.1512 0.357801 15.2243 0.459589 15.2741 0.571652C15.324 0.683715 15.3496 0.803852 15.3496 0.92518C15.3496 1.04651 15.324 1.16664 15.2741 1.27871C15.2243 1.39077 15.1512 1.49256 15.0591 1.57824L8.40733 7.7842C8.33416 7.85261 8.24724 7.90688 8.15156 7.94391C8.05587 7.98094 7.9533 8 7.84972 8C7.74613 8 7.64356 7.98094 7.54787 7.94391C7.45219 7.90688 7.36527 7.85261 7.2921 7.7842L0.640281 1.57824C0.252719 1.21666 0.252719 0.633701 0.640281 0.272117C1.02784 -0.0894666 1.65269 -0.0894666 2.04025 0.272117L7.84576 5.68849L13.6592 0.264738C14.0467 -0.0894666 14.6716 -0.0894666 15.0591 0.272117Z" fill="#025098"/>
</svg>
