<svg width="9" height="21" viewBox="0 0 9 21" fill="none" xmlns="http://www.w3.org/2000/svg">
<g id="arrow_right">
<path id="Vector" d="M8.69387 0.69026C8.59747 0.567497 8.48296 0.470098 8.35689 0.403642C8.23082 0.337186 8.09567 0.302979 7.95917 0.302979C7.82268 0.302979 7.68752 0.337186 7.56145 0.403642C7.43538 0.470098 7.32087 0.567497 7.22447 0.69026L0.242777 9.55935C0.165818 9.65692 0.104761 9.7728 0.0631019 9.90038C0.021443 10.028 0 10.1647 0 10.3028C0 10.441 0.021443 10.5777 0.0631019 10.7053C0.104761 10.8329 0.165818 10.9488 0.242777 11.0463L7.22447 19.9154C7.63126 20.4322 8.28709 20.4322 8.69387 19.9154C9.10065 19.3987 9.10065 18.5655 8.69387 18.0488L2.60045 10.3081L8.70217 2.55688C9.10065 2.04013 9.10065 1.20701 8.69387 0.69026Z" fill="#D7D7D7"/>
</g>
</svg>
