<svg width="270" height="81" viewBox="0 0 270 81" fill="none" xmlns="http://www.w3.org/2000/svg">
<path d="M56.4452 63.8183V56.2278H52.2283V63.8183H51.6191V55.6655H57.0543V63.8183H56.4452Z" fill="#002B4F"/>
<path d="M63.0538 63.8166V58.8031H60.8047L60.711 61.5207C60.6642 63.2543 59.9613 63.8166 58.9774 63.8166H58.6025V63.3012H58.8837C59.3991 63.3012 60.055 63.1137 60.1019 61.2864L60.1956 58.2877H63.5692V63.8166H63.0538Z" fill="#002B4F"/>
<path d="M69.0531 61.1929H67.3195C66.3824 61.1929 65.9138 61.5677 65.9138 62.3174C65.9138 63.0671 66.3824 63.3951 67.4132 63.3951C68.5846 63.3951 69.0531 62.9734 69.0531 61.9426V61.1929ZM69.0531 63.8168V63.2545L68.3971 63.7231C68.116 63.8636 67.788 63.8636 67.3663 63.8636C66.0544 63.8636 65.3516 63.3482 65.3516 62.2705C65.3516 61.2866 66.0544 60.6775 67.2726 60.6775H69.0531V60.0684C69.0531 59.1313 68.5377 58.7096 67.46 58.7096L66.5229 58.897L66.0075 59.4124L65.5858 59.0375L66.2887 58.4284C66.6167 58.2879 66.9915 58.1942 67.5069 58.1942C68.9126 58.1942 69.6622 58.8033 69.6622 60.0215V63.7699H69.0531V63.8168Z" fill="#002B4F"/>
<path d="M73.411 58.8037V63.8172H72.8019V58.8037H70.834V58.2883H75.2852V58.8037H73.411Z" fill="#002B4F"/>
<path d="M79.2657 58.7572V63.3958C80.8119 63.3958 81.5147 62.4587 81.5147 61.0999C81.5147 59.8348 80.9524 58.7572 79.2657 58.7572ZM78.7034 58.7572C77.0166 58.7572 76.4544 59.8348 76.4544 61.0531C76.4544 62.4119 77.1572 63.349 78.7034 63.349V58.7572ZM79.2657 63.8644V66.4414H78.7034V63.8644C76.9698 63.8644 75.8921 62.8336 75.8921 61.0531C75.8921 59.2726 76.9229 58.2418 78.7034 58.2418V55.6647H79.2657V58.2418C81.0462 58.2418 82.1238 59.2726 82.1238 61.0531C82.1238 62.8336 80.9993 63.8644 79.2657 63.8644Z" fill="#002B4F"/>
<path d="M86.9414 59.226C86.6603 58.9448 86.2386 58.7574 85.8169 58.7574C85.3952 58.7574 84.9735 58.9448 84.6924 59.226C84.3175 59.6008 84.2238 60.1162 84.2238 61.0533C84.2238 62.0373 84.3644 62.5058 84.6924 62.8807C84.9735 63.1618 85.3952 63.3492 85.8169 63.3492C86.2386 63.3492 86.6603 63.1618 86.9414 62.8807C87.3163 62.5058 87.4568 61.9904 87.4568 61.0533C87.41 60.0694 87.2694 59.6008 86.9414 59.226ZM87.3163 63.2555C86.9414 63.6303 86.3792 63.8646 85.77 63.8646C85.1609 63.8646 84.6455 63.6303 84.2238 63.2555C83.7553 62.7869 83.521 62.0841 83.521 61.0533C83.521 59.9756 83.7084 59.3197 84.2238 58.8511C84.5987 58.4763 85.1609 58.242 85.77 58.242C87.1757 58.242 87.9722 59.226 87.9722 61.0533C88.0191 62.131 87.7848 62.7869 87.3163 63.2555Z" fill="#002B4F"/>
<path d="M92.0548 58.7561C90.9771 58.7561 90.5085 59.4589 90.5085 61.052C90.5085 62.6451 90.9771 63.3479 92.0548 63.3479C93.1324 63.3479 93.601 62.6451 93.601 61.052C93.601 59.4589 93.1324 58.7561 92.0548 58.7561ZM92.1016 63.8633C91.2582 63.8633 90.8834 63.629 90.5085 63.0668V66.3935H89.9463V58.2407H90.5085V58.9435C90.9302 58.3812 91.3051 58.147 92.1016 58.147C93.5073 58.147 94.2101 59.0841 94.2101 60.9583C94.1633 62.9262 93.4604 63.8633 92.1016 63.8633Z" fill="#002B4F"/>
<path d="M100.679 63.8168V59.5061L98.9451 63.0202H98.4297L96.6492 59.5061V63.8168H96.0869V58.2878H96.6492L98.7108 62.458L100.679 58.2878H101.241V63.8168H100.679Z" fill="#002B4F"/>
<path d="M106.72 61.1929H104.986C104.049 61.1929 103.58 61.5677 103.58 62.3174C103.58 63.0671 104.049 63.3951 105.08 63.3951C106.251 63.3951 106.72 62.9734 106.72 61.9426V61.1929ZM106.72 63.8168V63.2545L106.064 63.7231C105.783 63.8636 105.455 63.8636 105.033 63.8636C103.721 63.8636 103.018 63.3482 103.018 62.2705C103.018 61.2866 103.721 60.6775 104.939 60.6775H106.72V60.0684C106.72 59.1313 106.204 58.7096 105.127 58.7096L104.189 58.897L103.627 59.4124L103.205 59.0375L103.908 58.4284C104.236 58.2879 104.611 58.1942 105.127 58.1942C106.532 58.1942 107.282 58.8033 107.282 60.0215V63.7699H106.72V63.8168Z" fill="#002B4F"/>
<path d="M115.615 61.1928H113.881C112.944 61.1928 112.475 61.5676 112.475 62.3173C112.475 63.067 112.944 63.395 113.975 63.395C115.146 63.395 115.568 62.9733 115.568 61.9424V61.1928H115.615ZM115.615 63.8166V63.2544L114.959 63.7229C114.678 63.8635 114.35 63.8635 113.928 63.8635C112.616 63.8635 111.913 63.3481 111.913 62.2704C111.913 61.2865 112.616 60.6774 113.834 60.6774H115.615V60.0682C115.615 59.1311 115.146 58.7094 114.022 58.7094L113.084 58.8969L112.569 59.4123L112.147 59.0374L112.85 58.4283C113.178 58.2877 113.553 58.194 114.068 58.194C115.521 58.194 116.224 58.8032 116.224 60.0214V63.7698H115.615V63.8166Z" fill="#002B4F"/>
<path d="M122.133 63.8166L120.165 60.9585L118.947 62.3641V63.8166H118.384V58.2877H118.947V61.5207L121.805 58.2877H122.554L120.586 60.5368L122.882 63.8166H122.133Z" fill="#002B4F"/>
<path d="M125.929 58.8034V63.8169H125.32V58.8034H123.352V58.288H127.803V58.8034H125.929Z" fill="#002B4F"/>
<path d="M130.1 65.3164L129.725 65.9723C129.491 66.2066 129.116 66.3003 128.695 66.3003H128.413V65.7849H128.648C129.21 65.7849 129.444 65.6443 129.632 65.0352L130.1 63.817L128.085 58.2881H128.741L130.381 63.1142L132.021 58.2881H132.677L130.1 65.3164Z" fill="#002B4F"/>
<path d="M137.182 61.1934H135.448C134.511 61.1934 134.042 61.5682 134.042 62.3179C134.042 63.0676 134.511 63.3956 135.542 63.3956C136.713 63.3956 137.182 62.9739 137.182 61.9431V61.1934ZM137.182 63.8173V63.255L136.526 63.7235C136.244 63.8641 135.916 63.8641 135.448 63.8641C134.136 63.8641 133.433 63.3487 133.433 62.271C133.433 61.2871 134.136 60.678 135.354 60.678H137.135V60.0688C137.135 59.1317 136.666 58.7101 135.542 58.7101L134.604 58.8975L134.089 59.4129L133.667 59.038L134.37 58.4289C134.698 58.2884 135.073 58.1946 135.588 58.1946C136.994 58.1946 137.744 58.8038 137.744 60.022V63.7704H137.182V63.8173Z" fill="#002B4F"/>
<path d="M143.503 63.817V58.8035H141.254L141.16 61.5211C141.113 63.2547 140.411 63.817 139.427 63.817H139.052V63.3016H139.333C139.848 63.3016 140.504 63.1142 140.551 61.2868L140.645 58.2881H144.018V63.817H143.503Z" fill="#002B4F"/>
<path d="M148.614 61.0525H146.881V63.3016H148.614C149.411 63.3016 149.832 62.9267 149.832 62.1771C149.832 61.4742 149.411 61.0525 148.614 61.0525ZM148.708 63.817H146.271V58.2881H146.834V60.5371H148.661C149.692 60.5371 150.348 61.1931 150.348 62.1771C150.348 63.161 149.739 63.817 148.708 63.817Z" fill="#002B4F"/>
<path d="M155.583 63.8166V61.1927H152.585V63.8166H151.976V58.2877H152.585V60.7242H155.583V58.2877H156.146V63.8166H155.583Z" fill="#002B4F"/>
<path d="M161.405 59.2258C161.124 58.9447 160.702 58.7573 160.28 58.7573C159.859 58.7573 159.437 58.9447 159.156 59.2258C158.781 59.6007 158.687 60.1161 158.687 61.0532C158.687 62.0371 158.828 62.5057 159.156 62.8805C159.437 63.1617 159.859 63.3491 160.28 63.3491C160.702 63.3491 161.124 63.1617 161.405 62.8805C161.78 62.5057 161.92 61.9903 161.92 61.0532C161.92 60.0692 161.78 59.6007 161.405 59.2258ZM161.827 63.2554C161.452 63.6302 160.889 63.8645 160.28 63.8645C159.671 63.8645 159.156 63.6302 158.734 63.2554C158.266 62.7868 158.031 62.084 158.031 61.0532C158.031 59.9755 158.219 59.3196 158.734 58.851C159.109 58.4762 159.671 58.2419 160.28 58.2419C161.686 58.2419 162.482 59.2258 162.482 61.0532C162.482 62.1309 162.295 62.7868 161.827 63.2554Z" fill="#002B4F"/>
<path d="M166.553 57.2085C165.569 57.2085 164.96 56.7399 164.725 55.8028H165.288C165.428 56.3182 165.803 56.693 166.6 56.693C167.396 56.693 167.724 56.3182 167.865 55.8028H168.38C168.146 56.7399 167.537 57.2085 166.553 57.2085ZM168.146 63.815V59.2232L164.96 63.815H164.397V58.2861H164.96V62.9248L168.146 58.2861H168.708V63.815H168.146Z" fill="#002B4F"/>
<path d="M177.567 63.8166V59.1779L174.428 63.8166H173.866V58.2877H174.428V62.9263L177.567 58.2877H178.176V63.8166H177.567Z" fill="#002B4F"/>
<path d="M183.978 63.8163V61.1924H180.979V63.8163H180.37V58.2874H180.979V60.7238H183.978V58.2874H184.54V63.8163H183.978Z" fill="#002B4F"/>
<path d="M189.75 58.7555V63.3941C191.297 63.3941 192 62.457 192 61.0982C192 59.8331 191.484 58.7555 189.75 58.7555ZM189.188 58.7555C187.501 58.7555 186.939 59.8331 186.939 61.0514C186.939 62.4102 187.642 63.3473 189.188 63.3473V58.7555ZM189.75 63.8627V66.4397H189.188V63.8627C187.455 63.8627 186.33 62.8319 186.33 61.0514C186.33 59.2709 187.361 58.2401 189.188 58.2401V55.663H189.75V58.2401C191.531 58.2401 192.609 59.2709 192.609 61.0514C192.609 62.8319 191.484 63.8627 189.75 63.8627Z" fill="#002B4F"/>
<path d="M197.424 59.2263C197.143 58.9452 196.722 58.7578 196.3 58.7578C195.878 58.7578 195.456 58.9452 195.175 59.2263C194.8 59.6012 194.707 60.1166 194.707 61.0537C194.707 62.0376 194.847 62.5062 195.175 62.881C195.456 63.1622 195.878 63.3496 196.3 63.3496C196.722 63.3496 197.143 63.1622 197.424 62.881C197.799 62.5062 197.893 61.9908 197.893 61.0537C197.893 60.0697 197.799 59.6012 197.424 59.2263ZM197.799 63.2559C197.424 63.6307 196.862 63.865 196.253 63.865C195.644 63.865 195.128 63.6307 194.707 63.2559C194.238 62.7873 194.004 62.0845 194.004 61.0537C194.004 59.976 194.191 59.32 194.707 58.8515C195.082 58.4766 195.644 58.2424 196.253 58.2424C197.659 58.2424 198.455 59.2263 198.455 61.0537C198.502 62.1313 198.268 62.7873 197.799 63.2559Z" fill="#002B4F"/>
<path d="M202.54 58.7559C201.462 58.7559 200.994 59.4587 200.994 61.0518C200.994 62.6449 201.462 63.3477 202.54 63.3477C203.618 63.3477 204.086 62.6449 204.086 61.0518C204.086 59.4587 203.618 58.7559 202.54 58.7559ZM202.587 63.8631C201.744 63.8631 201.369 63.6288 200.994 63.0666V66.3933H200.432V58.2405H200.994V58.9433C201.416 58.3811 201.79 58.1468 202.587 58.1468C203.993 58.1468 204.695 59.0839 204.695 60.9581C204.649 62.926 203.993 63.8631 202.587 63.8631Z" fill="#002B4F"/>
<path d="M211.163 63.817V59.5063L209.429 63.0205H208.914L207.133 59.5063V63.817H206.571V58.2881H207.133L209.195 62.4582L211.163 58.2881H211.772V63.817H211.163Z" fill="#002B4F"/>
<path d="M217.205 61.1925H215.472C214.535 61.1925 214.066 61.5674 214.066 62.317C214.066 63.0667 214.535 63.3947 215.566 63.3947C216.737 63.3947 217.205 62.973 217.205 61.9422V61.1925ZM217.205 63.8164V63.2541L216.549 63.7227C216.268 63.8633 215.94 63.8633 215.519 63.8633C214.207 63.8633 213.504 63.3479 213.504 62.2702C213.504 61.2862 214.207 60.6771 215.425 60.6771H217.205V60.068C217.205 59.1309 216.69 58.7092 215.612 58.7092L214.675 58.8966L214.16 59.412L213.738 59.0372L214.441 58.4281C214.769 58.2875 215.144 58.1938 215.659 58.1938C217.065 58.1938 217.815 58.8029 217.815 60.0211V63.7696H217.205V63.8164Z" fill="#002B4F"/>
<path d="M224.419 65.6439V63.8166H219.968V58.2877H220.531V63.3012H223.529V58.2877H224.138V63.3012H224.982V65.6439H224.419Z" fill="#002B4F"/>
<path d="M230.236 63.8166V59.1779L227.096 63.8166H226.487V58.2877H227.096V62.9263L230.236 58.2877H230.845V63.8166H230.236Z" fill="#002B4F"/>
<path d="M236.794 63.817V59.1783L233.608 63.817H233.046V58.2881H233.608V62.9267L236.794 58.2881H237.403V63.817H236.794Z" fill="#002B4F"/>
<path d="M54.4732 72.9078C54.1921 72.6267 53.7704 72.4393 53.3487 72.4393C52.927 72.4393 52.5053 72.6267 52.2241 72.9078C51.8493 73.2826 51.7087 73.798 51.7087 74.7352C51.7087 75.6723 51.8493 76.1877 52.2241 76.5625C52.5053 76.8436 52.927 77.031 53.3487 77.031C53.7704 77.031 54.1921 76.8436 54.4732 76.5625C54.848 76.1877 54.9417 75.6723 54.9417 74.7352C54.9886 73.798 54.848 73.2826 54.4732 72.9078ZM54.8949 76.9842C54.52 77.359 53.9578 77.5933 53.3487 77.5933C52.7395 77.5933 52.2241 77.359 51.8024 76.9842C51.3339 76.5156 51.0996 75.8128 51.0996 74.782C51.0996 73.7043 51.287 73.0484 51.8024 72.5798C52.1773 72.205 52.7395 71.9707 53.3487 71.9707C54.7543 71.9707 55.5509 72.9547 55.5509 74.782C55.5509 75.8128 55.3634 76.5156 54.8949 76.9842Z" fill="#002B4F"/>
<path d="M64.8326 79.3261V77.4987H60.3813V72.0167H60.9436V77.0302H63.9423V72.0167H64.5515V77.0302H65.3949V79.3261H64.8326Z" fill="#002B4F"/>
<path d="M70.683 77.4989V72.9071L67.4968 77.4989H66.9346V72.0168H67.4968V76.6086L70.683 72.0168H71.2453V77.4989H70.683Z" fill="#002B4F"/>
<path d="M76.4444 72.438V77.0298C77.9906 77.0298 78.6934 76.0927 78.6934 74.7339C78.6934 73.5157 78.1312 72.438 76.4444 72.438ZM75.8821 72.438C74.1953 72.438 73.6331 73.5157 73.6331 74.7339C73.6331 76.0927 74.3359 77.0298 75.8821 77.0298V72.438ZM76.4444 77.5921V80.1691H75.8821V77.5921C74.1485 77.5921 73.0708 76.5613 73.0708 74.7808C73.0708 73.0003 74.1016 71.9695 75.8821 71.9695V69.3925H76.4444V71.9695C78.2249 71.9695 79.2557 73.0003 79.2557 74.7808C79.3025 76.5613 78.178 77.5921 76.4444 77.5921Z" fill="#002B4F"/>
<path d="M83.2369 72.4367C82.1592 72.4367 81.6907 73.1395 81.6907 74.7326C81.6907 76.3256 82.1592 77.0285 83.2369 77.0285C84.3145 77.0285 84.7831 76.3256 84.7831 74.7326C84.7831 73.1863 84.3145 72.4367 83.2369 72.4367ZM83.2369 77.5907C82.3935 77.5907 82.0186 77.3564 81.6438 76.7942V80.1209H81.0815V71.9681H81.6438V72.6709C82.0655 72.1087 82.4403 71.8744 83.2369 71.8744C84.6425 71.8744 85.3454 72.8115 85.3454 74.6857C85.3454 76.6536 84.6425 77.5907 83.2369 77.5907Z" fill="#002B4F"/>
<path d="M90.2735 72.9079L89.1489 72.4394C88.7273 72.4394 88.3056 72.6268 88.0244 72.9079C87.6496 73.2828 87.509 73.7982 87.509 74.7353C87.509 75.6724 87.6496 76.1878 88.0244 76.5626C88.3056 76.8438 88.7273 77.0312 89.1489 77.0312L90.2735 76.5626C90.6483 76.1878 90.7889 75.6724 90.7889 74.7353C90.7889 73.7982 90.6483 73.2828 90.2735 72.9079ZM90.6952 76.9843C90.3203 77.3592 89.7581 77.5934 89.1489 77.5934C88.5398 77.5934 88.0244 77.3592 87.6027 76.9843C87.1342 76.5158 86.8999 75.8129 86.8999 74.7821C86.8999 73.7045 87.0873 73.0485 87.6027 72.5799C87.9776 72.2051 88.5398 71.9708 89.1489 71.9708C90.5546 71.9708 91.3511 72.9548 91.3511 74.7821C91.3511 75.8129 91.1637 76.5158 90.6952 76.9843Z" fill="#002B4F"/>
<path d="M95.7109 74.922H93.8835V77.0305H95.7109C96.4605 77.0305 96.8822 76.6088 96.8822 75.9997C96.8822 75.3437 96.4137 74.922 95.7109 74.922ZM95.6172 72.4856H93.8367V74.4066H95.6172C96.3668 74.4066 96.7417 74.0318 96.7417 73.4227C96.7885 72.8604 96.3668 72.4856 95.6172 72.4856ZM95.8046 77.4991H93.2275V71.9702H95.7109C96.648 71.9702 97.3039 72.5324 97.3039 73.3758C97.3039 73.9849 96.9291 74.4066 96.3668 74.594C96.9759 74.7815 97.3976 75.25 97.3976 75.9528C97.4445 76.9368 96.8354 77.4991 95.8046 77.4991Z" fill="#002B4F"/>
<path d="M104.433 77.4991V71.9702H104.996V77.4991H104.433ZM101.716 74.7815H99.9822V77.0305H101.716C102.512 77.0305 102.934 76.6088 102.934 75.906C102.934 75.2032 102.512 74.7815 101.716 74.7815ZM101.81 77.4991H99.373V71.9702H99.9353V74.2192H101.763C102.793 74.2192 103.449 74.8752 103.449 75.8591C103.496 76.8899 102.84 77.4991 101.81 77.4991Z" fill="#002B4F"/>
<path d="M110.384 77.4979L108.932 75.202L107.479 77.4979H106.729L108.604 74.6865L106.823 72.0158H107.526L108.932 74.218L110.29 72.0158H110.993L109.213 74.6865L111.087 77.4979H110.384Z" fill="#002B4F"/>
<path d="M117.117 72.4844V77.4979H116.555V72.4844H114.54V72.0159H118.991V72.4844H117.117Z" fill="#002B4F"/>
<path d="M123.452 73.608C123.218 72.8584 122.655 72.4367 121.953 72.4367C121.297 72.4367 120.781 72.8115 120.547 73.3738C120.406 73.6549 120.36 73.8892 120.36 74.4046H123.593C123.499 73.9829 123.499 73.8423 123.452 73.608ZM120.313 74.8731C120.36 75.4822 120.36 75.7165 120.5 76.0445C120.781 76.7005 121.297 77.0285 122.093 77.0285L122.89 76.8879L123.639 76.3725L124.061 76.7005L123.124 77.3564L122.093 77.5439C120.547 77.5439 119.75 76.5599 119.75 74.6857C119.75 72.9521 120.594 71.8744 121.953 71.8744C123.311 71.8744 124.155 72.9052 124.155 74.5451V74.8263H120.313V74.8731Z" fill="#002B4F"/>
<path d="M128.831 77.4979L127.379 75.202L125.926 77.4979H125.224L127.051 74.6866L125.27 72.0159H125.973L127.379 74.2181L128.785 72.0159H129.487L127.707 74.6866L129.534 77.4979H128.831Z" fill="#002B4F"/>
<path d="M134.688 77.4973V74.9203H131.69V77.4973H131.127V72.0153H131.69V74.4049H134.688V72.0153H135.298V77.4973H134.688Z" fill="#002B4F"/>
<path d="M140.553 72.9066C140.272 72.6255 139.85 72.4381 139.429 72.4381C139.007 72.4381 138.585 72.6255 138.304 72.9066C137.929 73.2815 137.789 73.7969 137.789 74.734C137.789 75.6711 137.929 76.1865 138.304 76.5613C138.585 76.8425 139.007 77.0299 139.429 77.0299C139.85 77.0299 140.272 76.8425 140.553 76.5613C140.928 76.1865 141.022 75.6711 141.022 74.734C141.022 73.7969 140.928 73.2815 140.553 72.9066ZM140.928 76.983C140.553 77.3579 139.991 77.5922 139.382 77.5922C138.773 77.5922 138.257 77.3579 137.836 76.983C137.367 76.5145 137.133 75.8117 137.133 74.7808C137.133 73.7032 137.32 73.0472 137.836 72.5787C138.21 72.2038 138.773 71.9695 139.382 71.9695C140.788 71.9695 141.584 72.9535 141.584 74.7808C141.631 75.8117 141.397 76.5145 140.928 76.983Z" fill="#002B4F"/>
<path d="M146.966 77.4979V72.4844H144.764L144.67 75.202C144.624 76.9357 143.921 77.4979 142.937 77.4979H142.562V77.0294H142.843C143.359 77.0294 144.015 76.842 144.061 75.0146L144.155 72.0159H147.529V77.5448H146.966V77.4979Z" fill="#002B4F"/>
<path d="M152.788 72.9073L151.663 72.4387C151.241 72.4387 150.82 72.6261 150.539 72.9073C150.164 73.2821 150.023 73.7975 150.023 74.7346C150.023 75.6717 150.164 76.1871 150.539 76.5619C150.82 76.8431 151.241 77.0305 151.663 77.0305L152.788 76.5619C153.116 76.1871 153.303 75.6717 153.303 74.7346C153.303 73.7975 153.162 73.2821 152.788 72.9073ZM153.209 76.9836C152.834 77.3585 152.272 77.5928 151.663 77.5928C151.054 77.5928 150.539 77.3585 150.117 76.9836C149.648 76.5151 149.414 75.8123 149.414 74.7815C149.414 73.7038 149.601 73.0478 150.117 72.5793C150.492 72.2044 151.054 71.9702 151.663 71.9702C153.069 71.9702 153.865 72.9541 153.865 74.7815C153.865 75.8123 153.678 76.5151 153.209 76.9836Z" fill="#002B4F"/>
<path d="M156.383 72.4837V77.4972H155.821V72.0152H159.241V72.4837H156.383Z" fill="#002B4F"/>
<path d="M164.218 77.4978V72.906L161.032 77.4978H160.47V72.0157H161.032V76.6075L164.218 72.0157H164.78V77.4978H164.218Z" fill="#002B4F"/>
<path d="M170.116 72.4859H168.382C167.585 72.4859 167.164 72.9076 167.164 73.6104C167.164 74.3601 167.585 74.7349 168.382 74.7349H170.116V72.4859ZM170.116 77.4994V75.2503H168.569L167.258 77.4994H166.555L167.913 75.2503C167.07 75.1098 166.555 74.5006 166.555 73.6104C166.555 72.6264 167.211 71.9705 168.241 71.9705H170.678V77.4994H170.116Z" fill="#002B4F"/>
<path d="M175.935 77.4985L174.482 75.2026L173.03 77.4985H172.28L174.154 74.6872L172.374 72.0164H173.077L174.482 74.2186L175.841 72.0164H176.544L174.764 74.6872L176.638 77.4985H175.935Z" fill="#002B4F"/>
<path d="M184.682 77.4978V74.9208H181.683V77.4978H181.121V72.0157H181.683V74.4054H184.682V72.0157H185.291V77.4978H184.682Z" fill="#002B4F"/>
<path d="M190.735 74.8727H189.002C188.064 74.8727 187.596 75.2475 187.596 75.9972C187.596 76.7469 188.065 77.0749 189.095 77.0749C190.267 77.0749 190.735 76.6532 190.735 75.6224V74.8727ZM190.735 77.4966V76.9343L190.079 77.4029C189.798 77.4966 189.47 77.5434 189.048 77.5434C187.737 77.5434 187.034 76.9812 187.034 75.9504C187.034 74.9664 187.737 74.3573 188.955 74.3573H190.735V73.7482C190.735 72.8111 190.267 72.3894 189.142 72.3894L188.205 72.5768L187.69 73.0922L187.268 72.7174L187.971 72.1082C188.299 71.9677 188.674 71.874 189.189 71.874C190.642 71.874 191.344 72.4831 191.344 73.7013V77.4497H190.735V77.4966Z" fill="#002B4F"/>
<path d="M197.947 72.4843V77.4978H197.384V72.4843H195.417V72.0157H199.821V72.4843H197.947Z" fill="#002B4F"/>
<path d="M203.196 72.4364C202.118 72.4364 201.65 73.1392 201.65 74.7323C201.65 76.3254 202.118 77.0282 203.196 77.0282C204.274 77.0282 204.742 76.3254 204.742 74.7323C204.742 73.1861 204.274 72.4364 203.196 72.4364ZM203.243 77.5905C202.399 77.5905 202.024 77.3562 201.65 76.7939V80.1207H201.087V71.9679H201.65V72.6707C202.071 72.1084 202.446 71.8741 203.243 71.8741C204.648 71.8741 205.351 72.8112 205.351 74.6855C205.351 76.6534 204.648 77.5905 203.243 77.5905Z" fill="#002B4F"/>
<path d="M210.472 74.8729H208.738C207.801 74.8729 207.333 75.2477 207.333 75.9974C207.333 76.7471 207.801 77.0751 208.832 77.0751C210.004 77.0751 210.472 76.6534 210.472 75.6226V74.8729ZM210.472 77.4968V76.9345L209.816 77.4031C209.535 77.4968 209.207 77.5436 208.785 77.5436C207.473 77.5436 206.771 76.9814 206.771 75.9505C206.771 74.9666 207.473 74.3575 208.692 74.3575H210.472V73.7484C210.472 72.8112 210.004 72.3896 208.879 72.3896L207.942 72.577L207.426 73.0924L207.005 72.7175L207.708 72.1084C208.036 71.9679 208.41 71.8741 208.926 71.8741C210.332 71.8741 211.081 72.4833 211.081 73.7015V77.4499H210.472V77.4968Z" fill="#002B4F"/>
<path d="M216.779 77.4971V74.92H213.781V77.4971H213.218V72.015H213.781V74.4046H216.779V72.015H217.388V77.4971H216.779Z" fill="#002B4F"/>
<path d="M221.746 77.5932C220.2 77.5932 219.31 76.5155 219.31 74.7819C219.31 73.0014 220.247 71.9706 221.746 71.9706C222.589 71.9706 222.964 72.2517 223.527 72.814L223.105 73.1888C222.683 72.7203 222.355 72.486 221.699 72.486C221.043 72.486 220.528 72.7203 220.2 73.2357C219.919 73.6105 219.825 74.0791 219.825 74.8287C219.825 75.5784 219.919 76.0001 220.2 76.375C220.528 76.8435 221.043 77.1246 221.652 77.1246C222.261 77.1246 222.636 76.8904 223.058 76.4218L223.48 76.7967C222.964 77.3121 222.543 77.5932 221.746 77.5932Z" fill="#002B4F"/>
<path d="M228.83 77.4979V72.4844H225.831V77.4979H225.222V72.0158H229.392V77.4979H228.83Z" fill="#002B4F"/>
<path d="M234.638 72.9073L233.513 72.4387C233.092 72.4387 232.67 72.6261 232.389 72.9073C232.014 73.2821 231.873 73.7975 231.873 74.7346C231.873 75.6717 232.014 76.1871 232.389 76.5619C232.67 76.8431 233.092 77.0305 233.513 77.0305L234.638 76.5619C235.013 76.1871 235.153 75.6717 235.153 74.7346C235.153 73.7975 235.013 73.2821 234.638 72.9073ZM235.059 76.9836C234.685 77.3585 234.122 77.5928 233.513 77.5928C232.904 77.5928 232.389 77.3585 231.967 76.9836C231.498 76.5151 231.264 75.8123 231.264 74.7815C231.264 73.7038 231.452 73.0478 231.967 72.5793C232.342 72.2044 232.904 71.9702 233.513 71.9702C234.919 71.9702 235.715 72.9541 235.715 74.7815C235.715 75.8123 235.528 76.5151 235.059 76.9836Z" fill="#002B4F"/>
<path d="M239.742 72.4352C238.664 72.4352 238.196 73.138 238.196 74.7311C238.196 76.3242 238.664 77.027 239.742 77.027C240.819 77.027 241.288 76.3242 241.288 74.7311C241.335 73.1849 240.866 72.4352 239.742 72.4352ZM239.789 77.5893C238.945 77.5893 238.57 77.355 238.196 76.7927V80.1194H237.633V71.9666H238.196V72.6695C238.617 72.1072 238.992 71.8729 239.789 71.8729C241.194 71.8729 241.897 72.81 241.897 74.6842C241.897 76.6521 241.194 77.5893 239.789 77.5893Z" fill="#002B4F"/>
<path d="M245.185 72.4844V77.4979H244.576V72.4844H242.608V72.0159H247.06V72.4844H245.185Z" fill="#002B4F"/>
<path d="M251.461 73.6071C251.227 72.8574 250.665 72.4357 249.962 72.4357C249.306 72.4357 248.791 72.8106 248.556 73.3728C248.416 73.654 248.369 73.8882 248.369 74.4037H251.602C251.555 73.982 251.555 73.8414 251.461 73.6071ZM248.322 74.8722C248.369 75.4813 248.369 75.7156 248.509 76.0436C248.791 76.6996 249.353 77.0275 250.103 77.0275L250.899 76.887L251.649 76.3716L252.07 76.6996L251.133 77.3555L250.103 77.5429C248.556 77.5429 247.76 76.559 247.76 74.6848C247.76 72.9511 248.603 71.8735 249.962 71.8735C251.321 71.8735 252.164 72.9043 252.164 74.5442V74.8253H248.322V74.8722Z" fill="#002B4F"/>
<path d="M70.9176 39.6861V15.9306L57.0954 39.6861H52.8315V6.98123H57.5171V30.6899L71.3393 6.98123H75.65V39.6861H70.9176Z" fill="#002B4F"/>
<path d="M93.2757 11.4326V39.6862H88.5901V11.4326H80.0625V6.98135H101.803V11.4326H93.2757Z" fill="#002B4F"/>
<path d="M120.075 39.0313C118.716 39.6404 117.264 39.9684 115.53 39.9684C112.25 39.9684 109.439 38.797 107.331 36.5011C104.238 33.2213 104.332 28.77 104.332 23.3817V22.0698C104.332 16.0723 104.754 13.0267 107.331 10.2623C109.439 8.01322 112.297 6.79498 115.483 6.79498C117.264 6.79498 118.763 7.12297 120.075 7.73209C121.528 8.38806 122.512 9.13774 124.058 10.684L120.919 14.0575C119.091 12.1833 117.732 11.2931 115.437 11.2931C113.609 11.2931 112.016 11.9959 110.845 13.261C109.064 15.2758 109.017 18.7899 109.017 23.0069V24.4594C109.017 30.0351 109.345 32.003 110.845 33.643C112.016 34.9549 113.562 35.6109 115.437 35.6109C117.732 35.6109 119.091 34.7206 120.919 32.8464L124.058 36.22C122.512 37.6257 121.528 38.3753 120.075 39.0313Z" fill="#002B4F"/>
<path d="M150.387 11.4325H143.64V22.3497H150.387C153.761 22.3497 155.916 20.2412 155.916 16.8677C155.916 13.4941 153.761 11.4325 150.387 11.4325ZM150.715 26.8009H143.687V39.6392H139.001V6.98123H150.715C156.572 6.98123 160.602 11.0108 160.602 16.9145C160.602 22.7714 156.572 26.8009 150.715 26.8009Z" fill="#002B4F"/>
<path d="M176.338 21.8351C175.542 20.898 174.417 20.3357 172.965 20.3357C171.512 20.3357 170.341 20.9448 169.591 21.8819C168.514 23.2876 168.232 25.4429 168.232 28.2074C168.232 31.2998 168.654 33.1272 169.685 34.2985C170.482 35.2825 171.606 35.751 172.965 35.751C174.464 35.751 175.636 35.1419 176.385 34.2048C177.416 32.8929 177.744 30.7844 177.744 28.1137C177.744 25.2086 177.51 23.147 176.338 21.8351ZM179.571 37.2036C177.931 38.984 175.636 39.968 172.965 39.968C170.294 39.968 168.045 38.984 166.405 37.2036C164.531 35.1419 163.781 32.6117 163.781 28.0199C163.781 23.475 164.531 20.9448 166.405 18.8832C168.045 17.1027 170.294 16.1187 172.965 16.1187C175.636 16.1187 177.931 17.1027 179.571 18.8832C181.399 20.898 182.148 23.475 182.148 27.9262C182.148 32.6117 181.446 35.1419 179.571 37.2036Z" fill="#002B4F"/>
<path d="M199.961 39.1715C198.79 39.7338 197.524 39.9681 196.025 39.9681C189.793 39.9681 186.186 35.5168 186.186 27.9263C186.186 20.57 189.887 16.1188 196.025 16.1188C197.524 16.1188 198.836 16.3999 199.961 16.9153C201.132 17.4776 201.835 17.9462 203.241 19.4455L200.242 22.538C198.93 21.1792 197.946 20.3358 195.978 20.3358C192.417 20.3358 190.59 23.0065 190.59 28.0669C190.59 33.2209 192.417 35.8448 195.978 35.8448C197.993 35.8448 198.883 35.0014 200.242 33.5958L203.241 36.7351C201.835 38.0939 201.132 38.6093 199.961 39.1715Z" fill="#002B4F"/>
<path d="M219.309 39.1715C218.137 39.7337 216.872 39.968 215.373 39.968C209.141 39.968 205.486 35.5168 205.486 27.9262C205.486 20.57 209.188 16.1187 215.373 16.1187C216.872 16.1187 218.184 16.3999 219.309 16.9153C220.48 17.4775 221.183 17.9461 222.588 19.4455L219.59 22.5379C218.278 21.1791 217.294 20.3357 215.326 20.3357C211.765 20.3357 209.938 23.0064 209.938 28.0668C209.938 33.2209 211.765 35.8448 215.326 35.8448C217.341 35.8448 218.231 35.0014 219.59 33.5957L222.588 36.735C221.183 38.0938 220.48 38.6092 219.309 39.1715Z" fill="#002B4F"/>
<path d="M240.675 39.6861V23.6616L231.211 39.6861H226.806V16.399H231.211V32.1892L240.675 16.399H245.08V39.6861H240.675Z" fill="#002B4F"/>
<path d="M265.096 39.6861V23.6616L255.631 39.6861H251.227V16.399H255.631V32.1892L265.096 16.399H269.5V39.6861H265.096Z" fill="#002B4F"/>
<path d="M37.2813 29.0502L20.2729 19.3512L27.1137 0H20.4603L19.1483 3.70155H15.0719L11.3235 14.2908L0.5 8.10594L7.52827 24.9269L1.76509 41.0919H8.46537L9.77732 37.4372H12.7292L16.8056 47.1831L37.2813 29.0502Z" fill="white"/>
<path d="M0.5 8.19946L37.2813 29.3845L16.8056 47.7259L0.5 8.19946Z" fill="url(#paint0_linear_909_34227)"/>
<path d="M15.07 3.74496L1.76318 41.5652H8.46347L21.7235 3.74496H15.07Z" fill="url(#paint1_linear_909_34227)"/>
<path d="M20.4538 0L7.19385 37.8676H13.8473L27.1073 0H20.4538Z" fill="url(#paint2_linear_909_34227)"/>
<path d="M7.19385 37.8685H9.77088L21.7189 3.74496H19.1419L7.19385 37.8685Z" fill="url(#paint3_linear_909_34227)"/>
<path opacity="0.43" d="M0.5 8.19946L37.2813 29.3845L16.8056 47.7259L0.5 8.19946Z" fill="#C6C5C4"/>
<defs>
<linearGradient id="paint0_linear_909_34227" x1="-9.50648" y1="23.7215" x2="32.6265" y2="33.3226" gradientUnits="userSpaceOnUse">
<stop offset="1.82162e-07" stop-color="#37A6DE"/>
<stop offset="1" stop-color="#1C71B7"/>
</linearGradient>
<linearGradient id="paint1_linear_909_34227" x1="0.913419" y1="51.2162" x2="19.1816" y2="4.25879" gradientUnits="userSpaceOnUse">
<stop stop-color="#DF1F26"/>
<stop offset="0.1123" stop-color="#D9242C"/>
<stop offset="0.2681" stop-color="#C9313E"/>
<stop offset="0.4494" stop-color="#AE465C"/>
<stop offset="0.6498" stop-color="#886585"/>
<stop offset="0.8634" stop-color="#598BB9"/>
<stop offset="1" stop-color="#37A6DE"/>
</linearGradient>
<linearGradient id="paint2_linear_909_34227" x1="21.8953" y1="-2.3213" x2="12.1342" y2="40.3" gradientUnits="userSpaceOnUse">
<stop stop-color="#37A6DE"/>
<stop offset="0.3865" stop-color="#2179BA"/>
<stop offset="0.5158" stop-color="#2076B5"/>
<stop offset="0.6582" stop-color="#1F6CA8"/>
<stop offset="0.8067" stop-color="#1C5C92"/>
<stop offset="0.9587" stop-color="#174574"/>
<stop offset="1" stop-color="#163E6A"/>
</linearGradient>
<linearGradient id="paint3_linear_909_34227" x1="18.6384" y1="2.04007" x2="10.0221" y2="39.6625" gradientUnits="userSpaceOnUse">
<stop stop-color="#2179BA"/>
<stop offset="1" stop-color="#163E6A"/>
</linearGradient>
</defs>
</svg>
